<svg width="14" height="18" viewBox="0 0 14 18" fill="none" xmlns="http://www.w3.org/2000/svg">
<g clip-path="url(#clip0_3484_62481)">
<path d="M8.75197 1.83324C7.49732 1.48556 6.15599 1.64962 5.02213 2.28945C3.88826 2.92928 3.0544 3.99265 2.7034 5.24638L0.9054 11.7126C0.665273 12.5762 0.778037 13.4998 1.21889 14.2802C1.65973 15.0607 2.39255 15.634 3.25614 15.8742C4.11972 16.1143 5.04332 16.0015 5.82376 15.5607C6.6042 15.1198 7.17754 14.387 7.41767 13.5234L9.10395 7.45897C9.18807 7.20335 9.21947 6.93333 9.19624 6.66524C9.173 6.39714 9.09563 6.13655 8.96879 5.89921C8.84194 5.66188 8.66828 5.45275 8.45829 5.28447C8.2483 5.11618 8.00635 4.99224 7.74709 4.92015C7.48783 4.84806 7.21663 4.82932 6.94992 4.86505C6.6832 4.90078 6.4265 4.99025 6.19535 5.12803C5.96421 5.26582 5.76341 5.44907 5.60512 5.66669C5.44683 5.88431 5.33433 6.13178 5.27443 6.39413L3.73828 11.9187C3.6997 12.0574 3.71782 12.2058 3.78865 12.3312C3.85948 12.4566 3.97722 12.5487 4.11597 12.5873C4.25472 12.6259 4.40311 12.6078 4.5285 12.5369C4.6539 12.4661 4.74601 12.3484 4.78459 12.2096L6.32075 6.68507C6.3456 6.56365 6.39516 6.44865 6.46634 6.3472C6.53753 6.24576 6.62883 6.16004 6.73456 6.09538C6.84029 6.03072 6.95819 5.98851 7.08093 5.97136C7.20367 5.95421 7.32862 5.96249 7.44803 5.99569C7.56743 6.02889 7.67872 6.0863 7.77499 6.16435C7.87126 6.2424 7.95045 6.33941 8.00762 6.44937C8.0648 6.55932 8.09874 6.67987 8.10735 6.8035C8.11595 6.92713 8.09903 7.05121 8.05763 7.16803L6.37136 13.2325C6.20839 13.8186 5.81928 14.3159 5.28962 14.6151C4.75997 14.9143 4.13315 14.9908 3.54707 14.8278C2.96099 14.6649 2.46365 14.2758 2.16447 13.7461C1.86528 13.2164 1.78875 12.5896 1.95172 12.0036L3.74972 5.53732C4.02355 4.56109 4.67317 3.7332 5.55626 3.23503C6.43934 2.73687 7.48388 2.60904 8.46104 2.87955C10.3863 3.41488 11.3084 5.30351 10.7056 7.47148L9.10081 13.243C9.06223 13.3817 9.08035 13.5301 9.15118 13.6555C9.22201 13.7809 9.33975 13.873 9.4785 13.9116C9.61725 13.9502 9.76564 13.932 9.89103 13.8612C10.0164 13.7904 10.1085 13.6726 10.1471 13.5339L11.7519 7.76242C12.5142 5.02107 11.2631 2.53149 8.75197 1.83324Z" fill="black"/>
</g>
<defs>
<clipPath id="clip0_3484_62481">
<rect width="13.067" height="16.9678" fill="white" transform="translate(0 0.516602)"/>
</clipPath>
</defs>
</svg>
