<svg width="6" height="8" viewBox="0 0 6 8" fill="none" xmlns="http://www.w3.org/2000/svg">
<g clip-path="url(#clip0_3484_62493)">
<path d="M6 3.98499C5.95554 3.98499 5.96918 3.85342 5.66077 3.82507C5.64248 3.82429 5.47335 3.81251 5.19618 3.76915C4.82372 3.72071 4.47219 3.57305 4.18024 3.34241C3.99207 3.18575 3.83847 2.9935 3.72873 2.77727C3.6041 2.52424 3.51253 2.25697 3.45616 1.98171C3.33953 1.4173 3.28607 0.842207 3.29672 0.266545C3.29702 0.234239 3.29839 0.191537 3.29848 0.158727C3.29997 0.138182 3.29704 0.11756 3.28987 0.0981863C3.2827 0.0788129 3.27145 0.0611174 3.25684 0.0462381C3.24224 0.0313588 3.2246 0.0196252 3.20506 0.0117921C3.18552 0.00395902 3.16452 0.00019988 3.1434 0.00075653C3.03633 -0.00769502 2.94918 0.0559241 2.94918 0.128636C2.94918 0.201388 2.94993 0.240976 2.9503 0.27507C2.94943 0.720927 2.91665 1.16618 2.8522 1.60759C2.7986 2.08821 2.64034 2.55212 2.388 2.96829C2.14723 3.32156 1.78037 3.57495 1.35869 3.67923C0.996242 3.77418 0.622908 3.82395 0.247618 3.82736C-0.0728178 3.82952 0.00947634 3.9751 0.00947634 3.9751C0.00947634 4.13056 0.247618 4.15967 0.247618 4.15967C0.397774 4.16416 0.499268 4.16718 0.594651 4.17004C0.840354 4.18396 1.0842 4.22013 1.32303 4.27808C1.65414 4.35376 1.95676 4.51864 2.1964 4.75392C2.4643 5.05001 2.65291 5.40613 2.74542 5.79053C2.85207 6.20182 2.91721 6.62228 2.93991 7.04593C2.96286 7.34015 2.96622 7.63852 2.97211 7.90013C2.97211 7.90013 2.98316 8.00412 3.12597 7.99987C3.26877 7.99563 3.27546 7.90013 3.27546 7.90013C3.25627 7.21266 3.32006 6.52537 3.46551 5.85242C3.55049 5.40353 3.77456 4.99083 4.10754 4.66995C4.31373 4.48674 4.56113 4.35324 4.82985 4.28018C4.93652 4.24533 5.04592 4.21896 5.15696 4.20134C5.24897 4.18159 5.34221 4.16777 5.43608 4.15996C5.59436 4.15083 5.75192 4.13235 5.90791 4.10463C6 4.09532 5.94408 3.98499 6 3.98499Z" fill="white"/>
</g>
<defs>
<clipPath id="clip0_3484_62493">
<rect width="6" height="8" fill="white"/>
</clipPath>
</defs>
</svg>
