<svg width="36" height="35" viewBox="0 0 36 35" fill="none" xmlns="http://www.w3.org/2000/svg">
<g clip-path="url(#clip0_1113_4815)">
<path d="M17.625 0C7.92842 0 0.0670166 7.83546 0.0670166 17.5C0.0670166 27.1645 7.92842 35 17.625 35C27.3215 35 35.1829 27.1645 35.1829 17.5C35.1829 7.83546 27.3215 0 17.625 0ZM6.60065 19.3883C6.60065 19.8402 6.19314 20.1629 5.65339 20.1629C5.44289 20.1629 5.24318 20.0957 5.07586 19.9908C4.84647 19.8455 4.68455 19.6223 4.68455 19.3829C4.67915 17.4731 4.67915 15.5633 4.68455 13.6562C4.68455 13.1828 5.05427 12.9085 5.6453 12.9139C5.71276 12.9139 5.77753 12.9192 5.8396 12.93C6.29569 12.9972 6.59795 13.2931 6.60065 13.7074C6.60604 14.6542 6.60065 15.601 6.60065 16.5478C6.60065 17.4946 6.60334 18.4414 6.60065 19.3883ZM9.12396 23.4445C8.74614 23.6032 8.32244 23.5467 8.03367 23.3611C7.82587 23.2293 7.68823 23.0303 7.68554 22.7936C7.67744 21.9167 7.68554 21.0398 7.68554 20.1629C7.68554 18.6486 7.68554 17.1369 7.68554 15.6225C7.68554 15.1276 8.12813 14.8182 8.75963 14.8613C8.79741 14.8613 8.8325 14.872 8.86758 14.8774C9.31287 14.9447 9.60433 15.2298 9.60433 15.6279C9.60703 16.8168 9.60433 18.003 9.60433 19.1919C9.60433 20.3862 9.60433 21.5832 9.60433 22.7774C9.60433 23.0706 9.4721 23.3046 9.12396 23.4499V23.4445ZM9.60433 11.3753C9.60433 11.7572 9.60703 12.1419 9.60433 12.5238C9.59894 13.1129 9.21032 13.5191 8.65708 13.5218C8.46817 13.5218 8.28735 13.4599 8.13353 13.3523C7.87175 13.1694 7.69093 12.8627 7.68823 12.5211C7.68284 11.7465 7.68284 10.9691 7.68823 10.1944C7.69093 9.56771 8.03367 9.22609 8.63549 9.2234C8.68946 9.2234 8.73804 9.2288 8.78932 9.23687C9.27239 9.30142 9.59624 9.66723 9.60433 10.1998C9.61243 10.5925 9.60433 10.9852 9.60433 11.378V11.3753ZM12.635 24.238C12.6134 24.663 12.4272 24.9696 12.0791 25.1445C11.7741 25.2978 11.4503 25.2521 11.1966 25.0746C10.9186 24.8809 10.7216 24.5285 10.7189 24.0982C10.7135 21.879 10.7189 19.6599 10.7189 17.4408C10.7189 16.9271 10.7189 16.416 10.7189 15.9022C10.7189 14.1969 10.7189 12.4889 10.7189 10.7835C10.7189 10.2025 10.9537 9.84745 11.3909 9.73178C11.5285 9.69682 11.6581 9.68606 11.7795 9.69682C12.2896 9.74792 12.635 10.1998 12.635 10.8884C12.635 15.1383 12.635 19.3883 12.635 23.6382C12.635 23.8372 12.6404 24.0363 12.6323 24.2353L12.635 24.238ZM15.5847 26.6266C15.582 27.3098 15.2393 27.6864 14.6375 27.6891C14.4216 27.6891 14.2327 27.6299 14.0788 27.5169C13.8278 27.3367 13.674 27.022 13.6659 26.6212C13.6578 26.1935 13.6659 25.7631 13.6659 25.3328C13.6659 24.9132 13.6632 24.4962 13.6659 24.0766C13.6713 23.4338 14.0599 22.9873 14.6132 22.9873C14.6375 22.9873 14.6618 22.9926 14.686 22.9953C15.1691 23.041 15.5793 23.5171 15.582 24.082C15.5874 24.9293 15.5874 25.7793 15.582 26.6266H15.5847ZM15.5847 17.0427C15.5847 18.2209 15.5874 19.4017 15.5847 20.5799C15.582 21.2604 15.3202 21.7983 14.9235 21.9759C14.6537 22.0969 14.3865 22.0512 14.1706 21.8844C13.8764 21.6585 13.674 21.212 13.6713 20.6417C13.6605 18.2424 13.6686 15.8431 13.6713 13.4411C13.6713 13.3442 13.6794 13.2474 13.6956 13.1533C13.8009 12.5346 14.1949 12.0854 14.6051 12.0854C14.6294 12.0854 14.6537 12.08 14.6779 12.0854C15.1475 12.1472 15.5766 12.8036 15.5847 13.5056C15.5955 14.6838 15.5847 15.8646 15.5874 17.0427H15.5847ZM18.583 22.9603C18.583 25.045 18.5857 27.1296 18.583 29.2115C18.583 29.9835 17.8652 30.4972 17.2229 30.1933C17.1743 30.1691 17.1284 30.1449 17.0852 30.1153C16.8261 29.9431 16.6858 29.6822 16.6669 29.3406C16.6561 29.155 16.6642 28.9667 16.6642 28.7811C16.6642 24.7894 16.6642 20.8004 16.6642 16.8087C16.6642 16.0475 17.1446 15.6037 17.8031 15.7059C17.8382 15.7113 17.8732 15.7113 17.9083 15.722C18.3455 15.8296 18.5803 16.1632 18.5803 16.7092C18.583 18.3123 18.5803 19.9128 18.5803 21.5159C18.5803 21.9974 18.5803 22.4789 18.5803 22.9603H18.583ZM21.5759 26.328C21.5759 26.4248 21.5678 26.5217 21.5516 26.6158C21.441 27.2694 21.0038 27.7429 20.5693 27.6837C20.4478 27.6675 20.3291 27.6111 20.2211 27.525C19.9081 27.2775 19.6679 26.7853 19.6652 26.2635C19.6544 25.0853 19.6652 23.9045 19.6625 22.7263C19.6625 21.5482 19.6598 20.3674 19.6625 19.1892C19.6652 18.5087 19.927 17.9707 20.3237 17.7932C20.437 17.7448 20.5477 17.7233 20.6556 17.726C21.1576 17.7421 21.5732 18.3123 21.5759 19.1273C21.5867 21.5267 21.5786 23.926 21.5759 26.328ZM21.5759 14.4309C21.5759 14.8505 21.5786 15.2674 21.5759 15.6871C21.5705 16.3299 21.1819 16.7764 20.6287 16.7764C20.4505 16.7764 20.2805 16.7146 20.1321 16.6097C19.8541 16.4133 19.6598 16.069 19.6571 15.6817C19.6517 14.8344 19.6517 13.9844 19.6571 13.1371C19.6598 12.4539 20.0025 12.0773 20.6044 12.0746C20.6502 12.0746 20.6961 12.0827 20.7393 12.0881C21.2305 12.1499 21.5624 12.5534 21.5732 13.1398C21.5813 13.5675 21.5732 13.9979 21.5732 14.4282L21.5759 14.4309ZM24.5256 17.4408C24.5256 19.6599 24.5283 21.879 24.5256 24.0982C24.5256 24.9212 23.8078 25.4673 23.1655 25.1445C23.1223 25.123 23.0818 25.0988 23.044 25.0746C22.7741 24.8916 22.6284 24.6092 22.6095 24.238C22.5987 24.039 22.6068 23.8399 22.6068 23.6409C22.6068 19.391 22.6068 15.141 22.6068 10.8911C22.6068 10.0895 23.0737 9.61075 23.7214 9.70759C23.7646 9.71297 23.8078 9.72372 23.8536 9.73448C24.2908 9.84745 24.5256 10.2052 24.5256 10.7862C24.5283 12.4915 24.5256 14.1996 24.5256 15.9049C24.5256 16.4187 24.5256 16.9298 24.5256 17.4435V17.4408ZM26.6117 23.536C26.3877 23.536 26.1934 23.4741 26.0369 23.3638C25.7967 23.197 25.6483 22.9146 25.6429 22.5596C25.6348 22.1668 25.6429 21.7741 25.6429 21.3814C25.6429 20.9995 25.6402 20.6148 25.6429 20.2329C25.6483 19.6438 26.0369 19.2376 26.5902 19.2349C26.6252 19.2349 26.6576 19.243 26.6927 19.2457C27.1623 19.3022 27.5563 19.7326 27.559 20.2355C27.5644 21.0102 27.5644 21.7876 27.559 22.5623C27.5563 23.189 27.2136 23.5306 26.6117 23.5333V23.536ZM27.559 12.5965C27.559 14.1108 27.559 15.6225 27.559 17.1369C27.559 17.6318 27.1164 17.9411 26.4849 17.8981C26.2744 17.8846 26.0963 17.8201 25.9559 17.726C25.7589 17.5915 25.6429 17.387 25.6402 17.1342C25.6375 15.9453 25.6402 14.7591 25.6402 13.5702C25.6402 12.3759 25.6402 11.1789 25.6402 9.98463C25.6402 9.69144 25.7724 9.45742 26.1206 9.31217C26.3392 9.22072 26.574 9.2019 26.7899 9.23687C27.2109 9.3068 27.5563 9.58653 27.559 9.96311C27.5671 10.84 27.559 11.7169 27.559 12.5938V12.5965ZM29.5911 20.1656C29.3537 20.1656 29.1486 20.1011 28.9866 19.9935C28.7788 19.8563 28.6466 19.6438 28.6439 19.391C28.6385 18.4441 28.6439 17.4973 28.6439 16.5505C28.6439 15.6037 28.6412 14.6569 28.6439 13.71C28.6466 13.2393 29.0379 12.9219 29.5992 12.9165C29.691 12.9165 29.7747 12.9246 29.8556 12.9354C30.2928 13.0026 30.56 13.2582 30.56 13.6589C30.5654 15.5687 30.5654 17.4785 30.56 19.3856C30.56 19.7998 30.0904 20.1656 29.5911 20.1656Z" fill="#F9E400"/>
</g>
<defs>
<clipPath id="clip0_1113_4815">
<rect x="0.0670166" width="35.1159" height="35" rx="17.5" fill="white"/>
</clipPath>
</defs>
</svg>
