<svg width="40" height="41" viewBox="0 0 40 41" fill="none" xmlns="http://www.w3.org/2000/svg">
<path d="M4.85524 32.6233V10.0086L7.42266 6.02424C9.46106 7.07118 13.56 8.90611 14.496 7.20437C15.1434 6.02794 13.0014 3.60111 9.70892 1.78468C6.4164 -0.0280528 3.22008 -0.545974 2.57268 0.630452C1.84019 1.96226 4.22632 4.03025 6.14264 5.27326L0.87462 13.449C0.652653 13.7931 0.752552 14.2518 1.0966 14.4701C1.21868 14.5515 1.35925 14.5885 1.49613 14.5885C1.74029 14.5885 1.97705 14.4701 2.11763 14.2481L3.37175 12.3022V32.6196L0.127323 37.4141C-0.102043 37.7545 -0.0132417 38.2132 0.327108 38.4426C0.667458 38.6719 1.12618 38.5831 1.35554 38.2428L3.37545 35.2573V37.8285C3.37545 38.2354 3.70841 38.5683 4.11535 38.5683C4.52228 38.5683 4.85524 38.2354 4.85524 37.8285V35.2573L6.87515 38.2428C7.01942 38.4537 7.25248 38.5683 7.48924 38.5683C7.63352 38.5683 7.7778 38.5276 7.90358 38.4426C8.24023 38.2132 8.32901 37.7545 8.10334 37.4141L4.85894 32.6196L4.85524 32.6233Z" fill="white"/>
<path d="M39.2602 14.1001C39.6671 14.1001 40 13.7672 40 13.3602C40 12.9533 39.6671 12.6203 39.2602 12.6203H35.1538V8.92458C35.1538 8.51764 34.8208 8.18469 34.4139 8.18469C34.0069 8.18469 33.674 8.51764 33.674 8.92458V12.6203H31.2249L30.9734 10.9186C30.892 10.1972 29.5861 9.89014 27.9657 9.89014C25.0949 9.89014 21.229 10.8446 21.4066 12.1209C21.4066 12.1209 21.488 12.6869 21.6064 13.4897H16.3568L16.5566 12.1209C16.7342 10.8446 12.8683 9.89014 9.99749 9.89014C8.37713 9.89014 7.07122 10.1935 6.98983 10.9186L6.02425 17.4814C6.03905 17.3741 6.03535 17.3704 6.02425 17.4888C5.92067 18.3175 7.97758 19.2608 10.619 19.5938C11.2479 19.6715 11.8546 19.7122 12.4132 19.7122C14.2001 19.7122 15.5134 19.3274 15.5947 18.6948L16.146 14.9584C16.1941 14.9695 16.2459 14.9732 16.2976 14.9732H18.2473V20.2449C13.5231 20.6222 9.80511 24.5733 9.80511 29.3937C9.80511 34.4656 13.9152 38.5757 18.9872 38.5757C24.0591 38.5757 28.1692 34.4656 28.1692 29.3937C28.1692 24.3217 24.4512 20.6222 19.727 20.2449V14.9732H21.6766C21.7284 14.9732 21.7765 14.9695 21.8246 14.9584C22.091 16.76 22.387 18.7688 22.4129 18.8243C22.6459 19.3792 23.8963 19.7122 25.5574 19.7122C26.116 19.7122 26.7227 19.6752 27.3516 19.5938C29.993 19.2608 32.0499 18.3212 31.9463 17.4888C31.9426 17.4629 31.9389 17.4518 31.9389 17.4518L31.6652 15.5836H30.3112C29.9042 15.5836 29.5713 15.2506 29.5713 14.8437C29.5713 14.4368 29.9042 14.1038 30.3112 14.1038H33.6777V32.627L30.4333 37.4215C30.2039 37.7618 30.2927 38.2206 30.633 38.4499C30.9734 38.6793 31.4321 38.5905 31.6615 38.2502L33.6814 35.2647V37.8358C33.6814 38.2428 34.0143 38.5757 34.4213 38.5757C34.8282 38.5757 35.1612 38.2428 35.1612 37.8358V35.2647L37.1811 38.2502C37.3253 38.461 37.5584 38.5757 37.7952 38.5757C37.9394 38.5757 38.0837 38.535 38.2095 38.4499C38.5462 38.2206 38.635 37.7618 38.4093 37.4215L35.1649 32.627V14.1038H39.2712L39.2602 14.1001Z" fill="white"/>
</svg>
