<svg width="40" height="40" viewBox="0 0 40 40" fill="none" xmlns="http://www.w3.org/2000/svg">
<g clip-path="url(#clip0_3758_8156)">
<path d="M22.0439 30.0475C22.2139 29.471 22.395 28.7282 22.5354 28.1222C22.6869 27.4718 23.1637 26.9507 23.7993 26.7401C27.7386 25.4356 32.4133 21.6404 27.3358 15.554L27.1991 15.4173L36.4302 6.18614L37.003 5.99398C37.6571 5.77595 38.2521 5.4101 38.7399 4.9223L39.5676 4.09453C40.1441 3.51804 40.1441 2.5831 39.5676 2.00292L37.9971 0.432365C37.4206 -0.144121 36.4857 -0.144121 35.9055 0.432365L35.0777 1.26014C34.5899 1.74794 34.2241 2.3429 34.006 2.99699L33.8139 3.56978L24.5827 12.8009L24.446 12.6642C18.3596 7.5867 14.5644 12.2614 13.2599 16.2007C13.0493 16.8327 12.5282 17.3131 11.8778 17.4646C11.2718 17.605 10.5253 17.7898 9.95251 17.9561C-1.81741 21.415 -2.43824 28.658 4.37981 35.6202C11.342 42.4382 18.585 41.8174 22.0439 30.0475ZM17.4394 18.381C17.9974 17.823 18.7402 17.5163 19.531 17.5163C20.3219 17.5163 21.0646 17.823 21.6227 18.381C22.7756 19.534 22.7756 21.4113 21.6227 22.5643C21.0462 23.1407 20.2886 23.429 19.531 23.429C18.7735 23.429 18.0159 23.1407 17.4394 22.5643C16.2865 21.4113 16.2865 19.534 17.4394 18.381ZM7.8646 27.4348C8.15284 27.1466 8.62216 27.1466 8.9104 27.4348L12.5689 31.0933C12.8571 31.3815 12.8571 31.8509 12.5689 32.1391C12.4248 32.2832 12.2363 32.3571 12.0478 32.3571C11.8594 32.3571 11.6709 32.2832 11.5268 32.1391L7.86829 28.4806C7.58005 28.1924 7.58005 27.7231 7.86829 27.4348H7.8646Z" fill="white"/>
</g>
<defs>
<clipPath id="clip0_3758_8156">
<rect width="40" height="40" fill="white"/>
</clipPath>
</defs>
</svg>
