<svg width="40" height="41" viewBox="0 0 40 41" fill="none" xmlns="http://www.w3.org/2000/svg">
<path d="M40 35.4248H32.1454V39.8813H40V35.4248Z" fill="white"/>
<path d="M40 28.7391H32.1454V33.1957H40V28.7391Z" fill="white"/>
<path d="M40 22.0552H32.1454V26.5117H40V22.0552Z" fill="white"/>
<path d="M40 15.3695H32.1454V19.826H40V15.3695Z" fill="white"/>
<path d="M40 8.68384H32.1454V13.1404H40V8.68384Z" fill="white"/>
<path d="M29.2837 35.4248H21.4308V39.8813H29.2837V35.4248Z" fill="white"/>
<path d="M29.2837 28.7391H21.4308V33.1957H29.2837V28.7391Z" fill="white"/>
<path d="M29.2837 22.0552H21.4308V26.5117H29.2837V22.0552Z" fill="white"/>
<path d="M29.2837 15.3695H21.4308V19.826H29.2837V15.3695Z" fill="white"/>
<path d="M29.2837 8.68384H21.4308V13.1404H29.2837V8.68384Z" fill="white"/>
<path d="M29.2837 2H21.4308V6.45652H29.2837V2Z" fill="white"/>
<path d="M18.5675 35.4248H10.7146V39.8813H18.5675V35.4248Z" fill="white"/>
<path d="M18.5675 28.7391H10.7146V33.1957H18.5675V28.7391Z" fill="white"/>
<path d="M18.5675 22.0552H10.7146V26.5117H18.5675V22.0552Z" fill="white"/>
<path d="M7.85464 35.4248H0V39.8813H7.85464V35.4248Z" fill="white"/>
<path d="M7.85464 28.7391H0V33.1957H7.85464V28.7391Z" fill="white"/>
</svg>
