<svg width="35" height="33" viewBox="0 0 35 33" fill="none" xmlns="http://www.w3.org/2000/svg">
<path d="M23.391 21.357C23.391 22.8681 22.7112 24.2491 21.4774 25.2458C20.2454 26.2409 18.5338 26.789 16.6566 26.789C14.6443 26.789 13.038 26.2875 12.2059 25.8179C12.034 25.7211 11.9586 25.5352 12.0226 25.3656L12.594 23.8449C12.636 23.7319 12.7354 23.6418 12.8623 23.5999C12.9898 23.558 13.1324 23.569 13.2491 23.6298C13.9282 23.981 15.2214 24.392 16.63 24.392C18.3945 24.392 20.1805 23.4273 20.1805 21.5842C20.1548 19.704 18.631 18.7083 15.7736 18.7083C14.9064 18.7083 14.2241 18.7831 13.6223 18.8497L13.4918 18.8639C13.3536 18.8791 13.2151 18.8372 13.1169 18.7509C13.0187 18.6646 12.9726 18.5431 12.991 18.4221L14.0817 11.3402C14.1116 11.1454 14.3022 11 14.5267 11H22.6038C22.8517 11 23.053 11.1759 23.053 11.3926V13.0724C23.053 13.2891 22.8517 13.465 22.6038 13.465H16.5499L16.045 16.4121C16.2803 16.3928 16.5499 16.3797 16.89 16.3797C18.3568 16.3797 19.6925 16.6728 20.7526 17.2278C22.4289 18.0627 23.3908 19.5676 23.3908 21.3574L23.391 21.357Z" fill="white"/>
<path d="M21.6544 3.44052C21.6323 3.44942 21.6088 3.45682 21.585 3.463C21.609 3.45727 21.6323 3.44988 21.6544 3.44052Z" fill="white"/>
<path d="M5.14643 6.79441C8.46329 3.89651 12.8726 2.30054 17.5622 2.30054C18.7588 2.30054 19.9501 2.4057 21.1114 2.61466L21.6098 0.319217C21.6396 0.181618 21.7511 0.068007 21.9027 0.0218386C22.0543 -0.0241789 22.2226 0.00358246 22.3441 0.0951649L29.9972 5.85792C30.1188 5.9495 30.1757 6.09087 30.1457 6.22847C30.1158 6.36607 30.0038 6.47968 29.8522 6.52585L20.3156 9.43733C20.2671 9.45196 20.2173 9.45936 20.1676 9.45936C20.0616 9.45936 19.9568 9.42631 19.8742 9.36415C19.7526 9.27257 19.6964 9.1312 19.7262 8.9936L20.4078 5.85445C19.4782 5.68381 18.523 5.5975 17.5623 5.5975C9.97448 5.5975 3.78819 10.9929 3.77214 17.6245C3.75591 24.2474 9.90629 29.6657 17.4822 29.7034C17.5086 29.7034 17.5344 29.7039 17.5606 29.7039C23.6935 29.7039 29.1415 26.1192 30.8245 20.9668C31.1 20.1235 32.0793 19.6125 33.0531 19.803C33.5639 19.9031 33.9929 20.1747 34.2604 20.5683C34.5258 20.9583 34.5959 21.4325 34.4533 21.8696C33.4266 25.0136 31.2174 27.846 28.2311 29.8445C25.1466 31.9091 21.4572 33 17.5623 33C12.8751 33 8.46468 31.4013 5.14487 28.4987C1.82507 25.5955 -0.00167873 21.7403 4.75509e-05 17.6431C0.00246434 13.545 1.82973 9.69171 5.1466 6.79426L5.14643 6.79441ZM21.5852 3.46304C21.6092 3.45731 21.6325 3.44992 21.6546 3.44056C21.6325 3.44947 21.6091 3.45686 21.5852 3.46304Z" fill="white"/>
</svg>
