<svg width="35" height="33" viewBox="0 0 35 33" fill="none" xmlns="http://www.w3.org/2000/svg">
<path d="M12.8712 3.44052C12.8933 3.44942 12.9168 3.45682 12.9406 3.463C12.9166 3.45727 12.8933 3.44988 12.8712 3.44052Z" fill="white"/>
<path d="M29.3792 6.79441C26.0623 3.89651 21.6531 2.30054 16.9635 2.30054C15.7668 2.30054 14.5755 2.4057 13.4143 2.61466L12.9159 0.319217C12.886 0.181618 12.7745 0.068007 12.6229 0.0218386C12.4714 -0.0241789 12.303 0.00358246 12.1815 0.0951649L4.52841 5.85792C4.40688 5.9495 4.34991 6.09087 4.37995 6.22847C4.40982 6.36607 4.52185 6.47968 4.67342 6.52585L14.2101 9.43733C14.2586 9.45196 14.3083 9.45936 14.358 9.45936C14.464 9.45936 14.5688 9.42631 14.6515 9.36415C14.773 9.27257 14.8293 9.1312 14.7994 8.9936L14.1179 5.85445C15.0475 5.68381 16.0026 5.5975 16.9633 5.5975C24.5512 5.5975 30.7374 10.9929 30.7535 17.6245C30.7697 24.2474 24.6193 29.6657 17.0434 29.7034C17.017 29.7034 16.9913 29.7039 16.965 29.7039C10.8321 29.7039 5.38413 26.1192 3.70118 20.9668C3.42566 20.1235 2.44635 19.6125 1.47255 19.803C0.961749 19.9031 0.532769 20.1747 0.265196 20.5683C-0.000132544 20.9583 -0.0702194 21.4325 0.0723711 21.8696C1.09899 25.0136 3.30828 27.846 6.29457 29.8445C9.37908 31.9091 13.0685 33 16.9633 33C21.6505 33 26.061 31.4013 29.3808 28.4987C32.7006 25.5955 34.5273 21.7403 34.5256 17.6431C34.5232 13.545 32.6959 9.69171 29.379 6.79426L29.3792 6.79441ZM12.9404 3.46304C12.9164 3.45731 12.8931 3.44992 12.871 3.44056C12.8931 3.44947 12.9166 3.45686 12.9404 3.46304Z" fill="white"/>
<path d="M22.9583 21.109C22.9583 22.6202 22.2785 24.0012 21.0447 24.9979C19.8126 25.9929 18.101 26.5411 16.2239 26.5411C14.2116 26.5411 12.6053 26.0396 11.7732 25.57C11.6013 25.4732 11.5258 25.2873 11.5899 25.1177L12.1613 23.597C12.2032 23.484 12.3026 23.3939 12.4295 23.352C12.5571 23.31 12.6997 23.321 12.8164 23.3818C13.4955 23.7331 14.7887 24.1441 16.1973 24.1441C17.9617 24.1441 19.7477 23.1794 19.7477 21.3363C19.722 19.456 18.1982 18.4604 15.3409 18.4604C14.4736 18.4604 13.7914 18.5352 13.1896 18.6018L13.0591 18.6159C12.9208 18.6312 12.7824 18.5892 12.6842 18.5029C12.5859 18.4166 12.5398 18.2952 12.5583 18.1742L13.649 11.0923C13.6788 10.8975 13.8694 10.7521 14.094 10.7521H22.1711C22.419 10.7521 22.6203 10.928 22.6203 11.1447V12.8245C22.6203 13.0412 22.419 13.2171 22.1711 13.2171H16.1172L15.6123 16.1642C15.8476 16.1449 16.1172 16.1317 16.4573 16.1317C17.9241 16.1317 19.2597 16.4249 20.3198 16.9798C21.9962 17.8148 22.9581 19.3196 22.9581 21.1095L22.9583 21.109Z" fill="white"/>
</svg>
