<svg width="24" height="27" viewBox="0 0 24 27" fill="none" xmlns="http://www.w3.org/2000/svg">
<path fill-rule="evenodd" clip-rule="evenodd" d="M14.2972 2.2328C15.8573 2.6598 17.29 3.61274 18.4037 4.92615C19.8999 6.70011 20.8554 9.16375 20.8554 11.8901C20.8874 18.0984 21.7471 19.1497 22.5748 20.168C23.0839 20.7923 23.5931 21.3836 23.9756 22.763C24.0709 23.1246 23.8802 23.4856 23.5298 23.617H15.6661C15.6661 24.5693 15.3161 25.4233 14.7111 26.0147C14.106 26.639 13.3102 27 12.3872 27C11.4642 27 10.6679 26.639 10.0634 26.0147C9.49026 25.4233 9.10838 24.5693 9.10838 23.617H1.4359C1.08597 23.617 0.767456 23.3213 0.767456 22.9603C0.767456 22.8619 0.799419 22.7959 0.83083 22.6976C1.21272 21.3836 1.69049 20.7593 2.19967 20.1686C3.02737 19.1502 3.88703 18.0989 3.91899 11.8906C3.91899 9.16432 4.87399 6.70068 6.4021 4.92672C7.48439 3.61274 8.91716 2.66037 10.5086 2.23337C10.4767 2.13501 10.4767 2.06905 10.4767 1.97069C10.4767 1.44532 10.6999 0.919389 11.0498 0.59132C11.3997 0.229705 11.8775 0 12.3867 0C12.9278 0 13.4056 0.229705 13.7555 0.59132C14.106 0.919957 14.2967 1.44532 14.2967 1.97069V2.23337L14.2972 2.2328Z" fill="white"/>
</svg>
