<svg width="25" height="24" viewBox="0 0 25 24" fill="none" xmlns="http://www.w3.org/2000/svg">
<g id="Chat">
<path id="Vector" d="M2.49995 12C2.49995 6.477 6.97695 2 12.4999 2C18.0229 2 22.4999 6.477 22.4999 12C22.4999 17.523 18.0229 22 12.4999 22C10.7749 22 9.15095 21.563 7.73345 20.793L3.61495 21.964C2.95545 22.1515 2.34645 21.542 2.53395 20.883L3.70495 16.764C2.91129 15.3017 2.49699 13.6638 2.49995 12ZM8.49995 10.125C8.49995 10.47 8.77995 10.75 9.12495 10.75H15.8749C15.957 10.75 16.0383 10.7338 16.1141 10.7024C16.19 10.671 16.2589 10.625 16.3169 10.5669C16.3749 10.5089 16.421 10.44 16.4524 10.3642C16.4838 10.2883 16.4999 10.2071 16.4999 10.125C16.4999 10.0429 16.4838 9.96165 16.4524 9.88582C16.421 9.80999 16.3749 9.74109 16.3169 9.68306C16.2589 9.62502 16.19 9.57898 16.1141 9.54757C16.0383 9.51617 15.957 9.5 15.8749 9.5H9.12495C8.77995 9.5 8.49995 9.78 8.49995 10.125ZM9.12495 13.25C8.95918 13.25 8.80021 13.3158 8.683 13.4331C8.56579 13.5503 8.49995 13.7092 8.49995 13.875C8.49995 14.0408 8.56579 14.1997 8.683 14.3169C8.80021 14.4342 8.95918 14.5 9.12495 14.5H13.8749C14.0407 14.5 14.1997 14.4342 14.3169 14.3169C14.4341 14.1997 14.4999 14.0408 14.4999 13.875C14.4999 13.7092 14.4341 13.5503 14.3169 13.4331C14.1997 13.3158 14.0407 13.25 13.8749 13.25H9.12495Z" fill="white"/>
</g>
</svg>
