<svg width="15" height="16" viewBox="0 0 15 16" fill="none" xmlns="http://www.w3.org/2000/svg">
<path d="M7 1C3.13337 1 0 4.13425 0 8C0 11.8658 3.13337 15 7 15C10.8666 15 14 11.8658 14 8C14 4.13425 10.8666 1 7 1ZM10.2436 10.0064C10.5857 10.3485 10.5857 10.9015 10.2436 11.2436C10.073 11.4142 9.849 11.5 9.625 11.5C9.401 11.5 9.177 11.4142 9.00638 11.2436L7 9.23725L4.99362 11.2436C4.823 11.4142 4.599 11.5 4.375 11.5C4.151 11.5 3.927 11.4142 3.75638 11.2436C3.41425 10.9015 3.41425 10.3485 3.75638 10.0064L5.76275 8L3.75638 5.99362C3.41425 5.6515 3.41425 5.0985 3.75638 4.75638C4.0985 4.41425 4.6515 4.41425 4.99362 4.75638L7 6.76275L9.00638 4.75638C9.3485 4.41425 9.9015 4.41425 10.2436 4.75638C10.5857 5.0985 10.5857 5.6515 10.2436 5.99362L8.23725 8L10.2436 10.0064Z" fill="white"/>
</svg>
