<svg width="18" height="16" viewBox="0 0 18 16" fill="none" xmlns="http://www.w3.org/2000/svg">
<path d="M8.59117 11.8182C8.8639 12.1591 9.40935 12.1591 9.68208 11.8182L13.773 7.52273C14.1139 7.18182 13.773 6.63636 13.2275 6.63636H10.5003C10.5003 6.63636 10.6366 3.5 10.5003 1.86364C10.4321 1.11364 9.88663 0.5 9.13663 0.5C8.38663 0.5 7.84117 1.11364 7.77299 1.86364C7.63663 3.43182 7.77299 6.63636 7.77299 6.63636H5.04572C4.50026 6.63636 4.15935 7.18182 4.50026 7.59091L8.59117 11.8182Z" fill="white"/>
<path d="M13.9091 13.4546H4.36364C3.61364 13.4546 3 14.0682 3 14.8182C3 15.2273 3.27273 15.5 3.68182 15.5H14.5909C15 15.5 15.2727 15.2273 15.2727 14.8182C15.2727 14.0682 14.6591 13.4546 13.9091 13.4546Z" fill="white"/>
</svg>
