<svg width="19" height="18" viewBox="0 0 19 18" fill="none" xmlns="http://www.w3.org/2000/svg">
<g clip-path="url(#clip0_2994_32900)">
<path d="M18.418 0.399364C18.2913 0.153926 18.0383 0 17.7624 0H1.23827C0.961863 0 0.708917 0.153926 0.582209 0.399364C0.455502 0.644801 0.47662 0.939983 0.636177 1.16524L6.36618 9.23558V13.9773C6.36618 14.2208 6.48632 14.4484 6.6867 14.5859L11.4786 17.8709C11.6039 17.9568 11.7494 18.0005 11.8958 18C12.0136 18 12.1319 17.9718 12.2398 17.9151C12.4819 17.7874 12.634 17.5359 12.634 17.2623V9.23558L18.364 1.16524C18.524 0.939983 18.5447 0.644801 18.418 0.399364Z" fill="white"/>
</g>
<defs>
<clipPath id="clip0_2994_32900">
<rect width="18" height="18" fill="white" transform="translate(0.5)"/>
</clipPath>
</defs>
</svg>
