<svg width="27" height="24" viewBox="0 0 27 24" fill="none" xmlns="http://www.w3.org/2000/svg">
<path d="M23.625 10.6015V10.2857C23.625 7.55777 22.5583 4.94156 20.6595 3.01262C18.7606 1.08367 16.1853 0 13.5 0C10.8147 0 8.23935 1.08367 6.34054 3.01262C4.44174 4.94156 3.375 7.55777 3.375 10.2857V10.6015C2.39074 10.9537 1.53792 11.6068 0.933634 12.4711C0.329346 13.3354 0.00320968 14.3685 0 15.4286L0 18.8571C0.00148885 20.2206 0.535336 21.5279 1.48442 22.492C2.4335 23.4562 3.7203 23.9985 5.0625 24C5.28414 24.0001 5.50363 23.9559 5.70843 23.8698C5.91322 23.7837 6.0993 23.6574 6.25602 23.4982C6.41275 23.339 6.53704 23.1499 6.6218 22.9419C6.70656 22.7339 6.75013 22.5109 6.75 22.2857L6.75 10.2857C6.75 8.46709 7.46116 6.72295 8.72703 5.43698C9.9929 4.15102 11.7098 3.42857 13.5 3.42857C15.2902 3.42857 17.0071 4.15102 18.273 5.43698C19.5388 6.72295 20.25 8.46709 20.25 10.2857V22.2857C20.2499 22.5109 20.2934 22.7339 20.3782 22.9419C20.463 23.1499 20.5873 23.339 20.744 23.4982C20.9007 23.6574 21.0868 23.7837 21.2916 23.8698C21.4964 23.9559 21.7159 24.0001 21.9375 24C23.2797 23.9985 24.5665 23.4562 25.5156 22.492C26.4647 21.5279 26.9985 20.2206 27 18.8571V15.4286C26.9968 14.3685 26.6707 13.3354 26.0664 12.4711C25.4621 11.6068 24.6093 10.9537 23.625 10.6015Z" fill="white"/>
</svg>
