<svg width="28" height="29" viewBox="0 0 28 29" fill="none" xmlns="http://www.w3.org/2000/svg">
<path d="M23.3333 4H4.66667C2.1 4 0 6.1 0 8.66667V20.3333C0 22.9 2.1 25 4.66667 25H23.3333C25.9 25 28 22.9 28 20.3333V8.66667C28 6.1 25.9 4 23.3333 4ZM25.2 10.7667L15.9833 16.95C15.4 17.3 14.7 17.5333 14 17.5333C13.3 17.5333 12.6 17.3 12.0167 16.95L2.8 10.7667C2.33333 10.4167 2.21667 9.71667 2.56667 9.13333C2.91667 8.66667 3.61667 8.55 4.2 8.9L13.4167 15.0833C13.7667 15.3167 14.35 15.3167 14.7 15.0833L23.9167 8.9C24.5 8.55 25.2 8.66667 25.55 9.25C25.7833 9.71667 25.6667 10.4167 25.2 10.7667Z" fill="white"/>
</svg>
