<svg width="56" height="53" viewBox="0 0 56 53" fill="none" xmlns="http://www.w3.org/2000/svg">
<path d="M26.7715 1H29.2285C43.3117 1.00005 54.7285 12.4168 54.7285 26.5C54.7285 40.5832 43.3117 52 29.2285 52H26.7715C12.6882 52 1.27148 40.5833 1.27148 26.5C1.27148 12.4167 12.6882 1 26.7715 1Z" stroke="white" stroke-width="2"/>
<g clip-path="url(#clip0_4276_30070)">
<path d="M24.052 14H18.8572C18.3406 14.0001 17.8451 14.208 17.4798 14.5782C17.1145 14.9483 16.9093 15.4503 16.9092 15.9737V37.0263C16.9093 37.5497 17.1145 38.0517 17.4798 38.4218C17.8451 38.792 18.3406 38.9999 18.8572 39H24.052C24.5687 38.9999 25.0641 38.792 25.4294 38.4218C25.7947 38.0517 26 37.5497 26.0001 37.0263V15.9737C26 15.4503 25.7948 14.9483 25.4294 14.5782C25.0641 14.208 24.5687 14.0001 24.052 14ZM24.7014 37.0263C24.701 37.2007 24.6325 37.3678 24.5108 37.4911C24.3891 37.6144 24.2241 37.6839 24.052 37.6842H18.8572C18.6851 37.6839 18.5202 37.6144 18.3984 37.4911C18.2767 37.3678 18.2082 37.2007 18.2079 37.0263V15.9737C18.2082 15.7993 18.2767 15.6322 18.3984 15.5089C18.5201 15.3855 18.6851 15.3161 18.8572 15.3158H24.052C24.2242 15.3161 24.3891 15.3855 24.5108 15.5089C24.6325 15.6322 24.7011 15.7993 24.7014 15.9737V37.0263Z" fill="#F5004F"/>
<path d="M24.7014 37.0263C24.701 37.2007 24.6325 37.3678 24.5108 37.4911C24.3891 37.6144 24.2241 37.6839 24.052 37.6842H18.8572C18.6851 37.6839 18.5202 37.6144 18.3984 37.4911C18.2767 37.3678 18.2082 37.2007 18.2079 37.0263V15.9737C18.2082 15.7993 18.2767 15.6322 18.3984 15.5089C18.5201 15.3855 18.6851 15.3161 18.8572 15.3158H24.052C24.2242 15.3161 24.3891 15.3855 24.5108 15.5089C24.6325 15.6322 24.7011 15.7993 24.7014 15.9737V37.0263Z" fill="#F5004F"/>
<path d="M37.1429 14H31.9481C31.4314 14.0001 30.936 14.208 30.5707 14.5782C30.2053 14.9483 30.0001 15.4503 30 15.9737V37.0263C30.0001 37.5497 30.2053 38.0517 30.5707 38.4218C30.936 38.792 31.4314 38.9999 31.9481 39H37.1429C37.6595 38.9999 38.1549 38.792 38.5203 38.4218C38.8856 38.0517 39.0908 37.5497 39.0909 37.0263V15.9737C39.0908 15.4503 38.8856 14.9483 38.5203 14.5782C38.1549 14.208 37.6595 14.0001 37.1429 14ZM37.7922 37.0263C37.7919 37.2007 37.7233 37.3678 37.6016 37.4911C37.4799 37.6144 37.315 37.6839 37.1429 37.6842H31.9481C31.7759 37.6839 31.611 37.6144 31.4893 37.4911C31.3676 37.3678 31.299 37.2007 31.2987 37.0263V15.9737C31.299 15.7993 31.3676 15.6322 31.4893 15.5089C31.611 15.3855 31.7759 15.3161 31.9481 15.3158H37.1429C37.315 15.3161 37.4799 15.3855 37.6017 15.5089C37.7234 15.6322 37.7919 15.7993 37.7922 15.9737V37.0263Z" fill="#F5004F"/>
<path d="M37.7922 37.0263C37.7919 37.2007 37.7233 37.3678 37.6016 37.4911C37.4799 37.6144 37.315 37.6839 37.1429 37.6842H31.9481C31.7759 37.6839 31.611 37.6144 31.4893 37.4911C31.3676 37.3678 31.299 37.2007 31.2987 37.0263V15.9737C31.299 15.7993 31.3676 15.6322 31.4893 15.5089C31.611 15.3855 31.7759 15.3161 31.9481 15.3158H37.1429C37.315 15.3161 37.4799 15.3855 37.6017 15.5089C37.7234 15.6322 37.7919 15.7993 37.7922 15.9737V37.0263Z" fill="#F5004F"/>
</g>
<defs>
<clipPath id="clip0_4276_30070">
<rect width="23.46" height="25" fill="white" transform="translate(16.27 14)"/>
</clipPath>
</defs>
</svg>
