<svg width="15" height="14" viewBox="0 0 15 14" fill="none" xmlns="http://www.w3.org/2000/svg">
<g clip-path="url(#clip0_3820_4082)">
<path d="M7.35742 13.5625C6.05948 13.5625 4.79069 13.1776 3.7115 12.4565C2.6323 11.7354 1.79117 10.7105 1.29447 9.51136C0.797765 8.31222 0.667806 6.99272 0.921021 5.71972C1.17424 4.44672 1.79925 3.2774 2.71704 2.35961C3.63482 1.44183 4.80414 0.816815 6.07714 0.5636C7.35014 0.310384 8.66965 0.440344 9.86879 0.937044C11.0679 1.43374 12.0928 2.27488 12.8139 3.35407C13.535 4.43327 13.9199 5.70206 13.9199 7C13.9199 8.74049 13.2285 10.4097 11.9978 11.6404C10.7671 12.8711 9.09791 13.5625 7.35742 13.5625ZM7.35742 1.3125C6.23254 1.3125 5.13292 1.64607 4.19762 2.27102C3.26231 2.89597 2.53333 3.78424 2.10286 4.82349C1.67239 5.86275 1.55976 7.00631 1.77921 8.10958C1.99866 9.21285 2.54034 10.2263 3.33576 11.0217C4.13117 11.8171 5.14458 12.3588 6.24785 12.5782C7.35112 12.7977 8.49468 12.685 9.53394 12.2546C10.5732 11.8241 11.4615 11.0951 12.0864 10.1598C12.7114 9.2245 13.0449 8.12488 13.0449 7C13.0449 5.49158 12.4457 4.04495 11.3791 2.97833C10.3125 1.91172 8.86584 1.3125 7.35742 1.3125Z" fill="white"/>
<path d="M7.35742 1.3125C6.23254 1.3125 5.13292 1.64607 4.19762 2.27102C3.26231 2.89597 2.53333 3.78424 2.10286 4.82349C1.67239 5.86275 1.55976 7.00631 1.77921 8.10958C1.99866 9.21285 2.54034 10.2263 3.33576 11.0217C4.13117 11.8171 5.14458 12.3588 6.24785 12.5782C7.35112 12.7977 8.49468 12.685 9.53394 12.2546C10.5732 11.8241 11.4615 11.0951 12.0864 10.1598C12.7114 9.2245 13.0449 8.12488 13.0449 7C13.0449 5.49158 12.4457 4.04495 11.3791 2.97833C10.3125 1.91172 8.86584 1.3125 7.35742 1.3125Z" fill="white"/>
<path d="M7.35742 10.5C7.18436 10.5 7.01519 10.4487 6.8713 10.3525C6.72741 10.2564 6.61525 10.1197 6.54903 9.95985C6.4828 9.79996 6.46547 9.62403 6.49924 9.4543C6.533 9.28456 6.61633 9.12865 6.7387 9.00628C6.86108 8.88391 7.01698 8.80058 7.18672 8.76681C7.35645 8.73305 7.53239 8.75038 7.69227 8.81661C7.85216 8.88283 7.98881 8.99498 8.08496 9.13888C8.1811 9.28277 8.23242 9.45194 8.23242 9.625C8.23242 9.85706 8.14023 10.0796 7.97614 10.2437C7.81205 10.4078 7.58949 10.5 7.35742 10.5Z" fill="#343331"/>
<path d="M7.35756 8.27268C7.18878 8.27268 7.02692 8.21783 6.90758 8.12018C6.78824 8.02254 6.72119 7.89011 6.72119 7.75202V3.06607C6.72119 2.92798 6.78824 2.79555 6.90758 2.69791C7.02692 2.60027 7.18878 2.54541 7.35756 2.54541C7.52633 2.54541 7.68819 2.60027 7.80753 2.69791C7.92687 2.79555 7.99392 2.92798 7.99392 3.06607V7.75202C7.99392 7.89011 7.92687 8.02254 7.80753 8.12018C7.68819 8.21783 7.52633 8.27268 7.35756 8.27268Z" fill="#343331"/>
</g>
<defs>
<clipPath id="clip0_3820_4082">
<rect width="20" height="20" fill="white" transform="translate(0.357422)"/>
</clipPath>
</defs>
</svg>
