<svg width="24" height="25" viewBox="0 0 24 25" fill="none" xmlns="http://www.w3.org/2000/svg">
<path fill-rule="evenodd" clip-rule="evenodd" d="M0.000504122 15.0168V9.98372C0.000504122 9.6156 0.276493 9.33926 0.613421 9.33926H3.43325C3.46397 9.21622 3.49469 9.12445 3.55613 9.00191C3.58685 8.87887 3.6478 8.7871 3.70924 8.66405L1.71688 6.69994C1.47161 6.45436 1.47161 6.05549 1.71688 5.80991L5.30323 2.21904C5.54849 1.97346 5.94687 1.97346 6.19214 2.21904L8.15378 4.21391C8.27666 4.15239 8.39904 4.09138 8.4907 4.06062C8.61359 3.9991 8.70525 3.96834 8.82763 3.93808V1.11369C8.82814 0.776337 9.10413 0.5 9.47178 0.5H14.5292C14.8667 0.5 15.1422 0.776337 15.1422 1.11369V3.96783C15.2645 4.02935 15.3567 4.06011 15.4791 4.09037C15.5712 4.15189 15.6629 4.18265 15.7858 4.24366L17.8089 2.21803C18.0541 1.97245 18.4525 1.97245 18.6978 2.21803L22.2534 5.8089C22.4987 6.05448 22.4987 6.45336 22.2534 6.69893L20.1996 8.75533C20.2303 8.84761 20.261 8.93938 20.322 9.06242C20.3527 9.1547 20.3834 9.24648 20.4136 9.33876H23.3564C23.6933 9.33876 24 9.6151 24 9.98321V15.0163C24 15.3844 23.6933 15.6607 23.3564 15.6607H20.3829C20.3215 15.753 20.2913 15.8448 20.2605 15.9371C20.2298 16.0294 20.1991 16.1211 20.1382 16.2134L22.2529 18.3006C22.4982 18.5461 22.4982 18.945 22.2529 19.2214L18.6973 22.7815C18.452 23.027 18.0536 23.027 17.8084 22.7815L15.6931 20.6635C15.6015 20.7251 15.5093 20.7558 15.4171 20.7866C15.325 20.8174 15.2333 20.8481 15.1411 20.9091V23.8863C15.1411 24.2242 14.8652 24.5 14.5282 24.5H9.47077C9.10261 24.5 8.82713 24.2237 8.82713 23.8863V20.9399C8.73547 20.9091 8.6433 20.8784 8.55164 20.8476C8.45948 20.7861 8.3371 20.7558 8.24493 20.7251L6.19113 22.7815C5.94586 23.027 5.54749 23.027 5.30222 22.7815L1.71587 19.2214C1.4706 18.945 1.4706 18.5461 1.71587 18.3006L3.73895 16.2749C3.67751 16.1826 3.64679 16.0909 3.61657 15.9986C3.55513 15.8761 3.52441 15.7838 3.46347 15.6607H0.61292C0.275992 15.6607 0 15.3844 0 15.0163L0.000504122 15.0168ZM15.0812 9.24699C14.2845 8.44924 13.1503 7.92732 11.924 7.92732C10.6976 7.92732 9.56394 8.44924 8.73597 9.24699C7.93923 10.0755 7.44869 11.1803 7.44869 12.439C7.44869 13.6976 7.93923 14.802 8.73597 15.6002C9.56344 16.4287 10.6976 16.9199 11.924 16.9199C13.1503 16.9199 14.2845 16.4287 15.0812 15.6002C15.9087 14.8025 16.3992 13.6669 16.3992 12.439C16.3992 11.2111 15.9087 10.076 15.0812 9.24699Z" fill="white"/>
</svg>
