<svg width="230" height="283" viewBox="0 0 230 283" fill="none" xmlns="http://www.w3.org/2000/svg">
<path d="M212.25 53.0625H185.719V17.6875C185.719 7.91958 177.799 0 168.031 0H61.9062C52.1383 0 44.2188 7.91958 44.2188 17.6875V53.0625H17.6875C7.91958 53.0625 0 60.9821 0 70.75V88.4375H229.938V70.75C229.938 60.9821 222.018 53.0625 212.25 53.0625ZM79.5938 53.0625V35.375H150.344V53.0625H79.5938Z" fill="white"/>
<path d="M17.6875 265.315C17.6875 275.083 25.6049 283 35.3728 283H194.567C204.333 283 212.25 275.083 212.25 265.317V265.315V106.125H17.6875V265.315ZM150.344 150.344C150.344 145.46 154.304 141.5 159.188 141.5C164.071 141.5 168.031 145.46 168.031 150.344V238.781C168.031 243.665 164.071 247.625 159.188 247.625C154.304 247.625 150.344 243.665 150.344 238.781V150.344ZM106.125 150.344C106.125 145.46 110.085 141.5 114.969 141.5C119.853 141.5 123.812 145.46 123.812 150.344V238.781C123.812 243.665 119.853 247.625 114.969 247.625C110.085 247.625 106.125 243.665 106.125 238.781V150.344ZM61.9062 150.344C61.9062 145.46 65.866 141.5 70.75 141.5C75.634 141.5 79.5938 145.46 79.5938 150.344V238.781C79.5938 243.665 75.634 247.625 70.75 247.625C65.866 247.625 61.9062 243.665 61.9062 238.781V150.344Z" fill="white"/>
</svg>
