<svg width="32" height="30" viewBox="0 0 32 30" fill="none" xmlns="http://www.w3.org/2000/svg">
<path d="M29.8678 0.973693L30.7036 1.76036C31.8553 2.84569 31.6811 4.76969 30.3112 6.05769L13.0746 22.2804L7.4901 24.203C6.78885 24.4457 6.10601 24.131 5.96718 23.503C5.92041 23.2752 5.9425 23.0396 6.03093 22.823L8.11343 17.5217L25.3018 1.34303C26.6718 0.0550258 28.716 -0.111641 29.8678 0.973693ZM12.3223 2.58703C12.5084 2.58703 12.6926 2.62151 12.8645 2.68852C13.0364 2.75553 13.1925 2.85374 13.3241 2.97755C13.4556 3.10136 13.56 3.24835 13.6312 3.41011C13.7024 3.57188 13.739 3.74526 13.739 3.92036C13.739 4.09546 13.7024 4.26884 13.6312 4.4306C13.56 4.59237 13.4556 4.73936 13.3241 4.86317C13.1925 4.98698 13.0364 5.08519 12.8645 5.1522C12.6926 5.21921 12.5084 5.25369 12.3223 5.25369H6.65568C5.90423 5.25369 5.18356 5.53464 4.65221 6.03474C4.12086 6.53484 3.82235 7.21312 3.82235 7.92036V23.9204C3.82235 24.6276 4.12086 25.3059 4.65221 25.806C5.18356 26.3061 5.90423 26.587 6.65568 26.587H23.6557C24.4071 26.587 25.1278 26.3061 25.6592 25.806C26.1905 25.3059 26.489 24.6276 26.489 23.9204V18.587C26.489 18.2334 26.6383 17.8943 26.9039 17.6442C27.1696 17.3942 27.53 17.2537 27.9057 17.2537C28.2814 17.2537 28.6417 17.3942 28.9074 17.6442C29.1731 17.8943 29.3223 18.2334 29.3223 18.587V23.9204C29.3223 25.3348 28.7253 26.6914 27.6626 27.6916C26.5999 28.6918 25.1586 29.2537 23.6557 29.2537H6.65568C5.15279 29.2537 3.71145 28.6918 2.64874 27.6916C1.58604 26.6914 0.989014 25.3348 0.989014 23.9204V7.92036C0.989014 6.50587 1.58604 5.14932 2.64874 4.14912C3.71145 3.14893 5.15279 2.58703 6.65568 2.58703H12.3223Z" fill="white"/>
</svg>
