<svg width="23" height="20" viewBox="0 0 23 20" fill="none" xmlns="http://www.w3.org/2000/svg">
<path id="Vector" fill-rule="evenodd" clip-rule="evenodd" d="M3.67939 10.4636H1.07533C0.797145 10.4636 0.569763 10.2337 0.569763 9.95236C0.569763 9.77336 0.645557 9.62006 0.746754 9.54341L11.0868 0.134245C11.2892 -0.0447484 11.5923 -0.0447484 11.7947 0.134245L22.2614 9.54299C22.4638 9.74767 22.4887 10.08 22.3118 10.2842C22.2106 10.4118 22.059 10.4632 21.9074 10.4632H19.3033V19.4887C19.3033 19.77 19.0759 20 18.7978 20H14.3988C14.1206 20 13.8678 19.77 13.8678 19.4887V13.6851H8.8871V19.4887C8.8871 19.77 8.65971 20 8.38152 20H4.20995C3.90636 20 3.67898 19.77 3.67898 19.4887V10.4632L3.67939 10.4636Z" fill="white"/>
</svg>
