<svg width="20" height="20" viewBox="0 0 20 20" fill="none" xmlns="http://www.w3.org/2000/svg">
<path id="Vector" fill-rule="evenodd" clip-rule="evenodd" d="M4.50135 13.9861C4.8794 13.9861 5.20399 14.0398 5.5551 14.094C5.60899 14.094 5.69025 14.1209 5.74413 14.1478V3.92827C5.74413 3.65853 5.93316 3.443 6.20344 3.38923L18.8212 0.0188457C19.1184 -0.0622449 19.4156 0.126824 19.4969 0.423445C19.4969 0.477221 19.5238 0.504536 19.5238 0.558312V14.1209C19.5238 14.9839 19.0376 15.7658 18.2541 16.3048C17.5514 16.817 16.552 17.114 15.4713 17.114C14.3906 17.114 13.4181 16.8174 12.6885 16.3048C11.932 15.7658 11.4457 14.9835 11.4457 14.1209C11.4457 13.2584 11.932 12.503 12.6885 11.937C13.4181 11.4518 14.3906 11.1283 15.4713 11.1283C15.8224 11.1283 16.1739 11.1551 16.5251 11.2362C16.5789 11.2362 16.6602 11.2631 16.7141 11.2631V6.32898L8.55429 8.56708V16.98C8.55429 17.9237 8.0411 18.6518 7.33845 19.137C6.52804 19.7034 5.39302 20 4.50177 20C3.42107 20 2.44857 19.6765 1.71898 19.1639C0.962447 18.6249 0.476196 17.8699 0.476196 16.98C0.476196 16.0902 0.962447 15.362 1.71898 14.823C2.44857 14.3109 3.42107 13.9873 4.50177 13.9873L4.50135 13.9861Z" fill="white"/>
</svg>
