<svg width="17" height="20" viewBox="0 0 17 20" fill="none" xmlns="http://www.w3.org/2000/svg">
<path id="Vector" fill-rule="evenodd" clip-rule="evenodd" d="M8.50043 0C9.8437 0 11.0817 0.551285 11.9774 1.4437C12.873 2.33612 13.4263 3.56967 13.4263 4.93462C13.4263 6.29956 12.873 7.53311 11.9774 8.39942C11.5822 8.81931 11.1079 9.16044 10.5813 9.3967C11.9774 9.76394 13.2416 10.4989 14.2425 11.4966C15.7177 12.9664 16.6395 15.0136 16.6395 17.2444V18.2156C16.6395 18.6881 16.4286 19.1341 16.1129 19.4752C15.7705 19.7903 15.3225 20 14.8482 20H2.15136C1.65091 20 1.20286 19.7903 0.887123 19.4752C0.544752 19.1341 0.360466 18.6877 0.360466 18.2156V17.2444C0.360466 15.0136 1.25613 12.9664 2.73128 11.4966C3.73218 10.4993 4.99683 9.76437 6.39294 9.3967C5.86586 9.16044 5.39204 8.81931 4.99683 8.39942C4.10117 7.53311 3.54789 6.29956 3.54789 4.93462C3.54789 3.56967 4.10117 2.33612 4.99683 1.4437C5.89249 0.551285 7.13052 0 8.50043 0Z" fill="white"/>
</svg>
