<svg width="20" height="20" viewBox="0 0 20 20" fill="none" xmlns="http://www.w3.org/2000/svg">
<g id="Group">
<path id="Vector" d="M19.458 16.9268L15.195 12.6504C16.0372 11.3186 16.4714 9.78221 16.4714 8.24581C16.4714 6.12057 15.68 4.0208 14.0719 2.40713C12.4637 0.793887 10.3451 0 8.25154 0C6.15796 0 4.03984 0.793887 2.43124 2.40713C0.823074 4.02038 0.0316772 6.12014 0.0316772 8.24581C0.0316772 10.3715 0.823074 12.4712 2.43124 14.0845C4.03941 15.6977 6.13256 16.4916 8.25154 16.4916C9.78311 16.4916 11.3147 16.0565 12.6423 15.2112L16.9052 19.4621C17.2624 19.8204 17.722 20 18.1816 20C18.6412 20 19.1008 19.8208 19.458 19.4621C19.7897 19.1293 19.9683 18.6682 19.9683 18.2072C19.9683 17.7461 19.7897 17.2855 19.458 16.9268Z" fill="white"/>
<path id="Vector_2" d="M8.81313 1.74146C8.65993 1.74146 8.53213 1.76693 8.40475 1.86967C8.30275 1.97198 8.25154 2.10019 8.25154 2.25387V2.27935C8.25154 2.56124 8.45594 2.76587 8.71113 2.79134C10.0383 2.91955 11.2127 3.48249 12.1061 4.37911C12.9741 5.24984 13.561 6.45341 13.6888 7.75929C13.6888 8.04118 13.9186 8.24581 14.1992 8.24581H14.2246C14.3524 8.24581 14.4798 8.19486 14.5822 8.06665C14.6842 7.96434 14.7354 7.83613 14.7354 7.68244C14.5822 6.09467 13.8933 4.68648 12.8467 3.63659C11.8001 2.58671 10.3705 1.86967 8.81357 1.74188L8.81313 1.74146Z" fill="#F5004F"/>
</g>
</svg>
