<svg width="110" height="30" viewBox="0 0 110 30" fill="none" xmlns="http://www.w3.org/2000/svg">
<g clip-path="url(#clip0_1158_4730)">
<path d="M109.549 29.7072C106.676 20.3207 103.79 10.9366 100.941 1.54339C100.751 0.91748 100.437 0.845685 99.9008 0.850172C97.6984 0.870362 95.4938 0.892799 93.2936 0.838957C92.5333 0.82101 92.1947 1.02517 91.9749 1.78568C91.0442 5.00049 90.0349 8.19063 89.0571 11.392C87.2584 17.2787 85.4642 23.1654 83.6341 29.1665C83.513 29.5659 83.8113 29.9741 84.2307 29.9719C86.6461 29.9652 88.9539 29.936 91.2595 29.9988C92.1095 30.0213 92.401 29.7005 92.6051 28.9601C93.2645 26.5619 93.4304 24.1121 93.4125 21.6488C93.408 20.8704 93.6256 20.6393 94.3432 20.6797C95.2583 20.7335 96.18 20.7515 97.0928 20.6842C97.7948 20.6326 98.0505 20.9085 98.2389 21.5569C98.988 24.1278 99.8088 26.6763 100.587 29.2406C100.713 29.6534 100.78 29.9899 101.356 29.9854C104.079 29.9584 106.802 29.9742 109.52 29.9742C109.536 29.8485 109.571 29.77 109.551 29.7072H109.549ZM96.7004 18.4183C95.5812 18.5103 94.4464 18.7571 93.6547 18.3421C92.7015 17.844 93.186 16.2871 92.9931 15.2035C92.7374 13.7745 92.6365 12.3073 92.2777 10.9074C92.031 9.94497 92.2306 9.3572 93.0357 8.86365C93.2622 8.7268 93.4641 8.54956 93.6928 8.35214C93.8723 8.1951 94.1571 8.27586 94.2266 8.50469C95.191 11.6522 96.1374 14.7414 97.0906 17.8485C97.1736 18.12 96.983 18.3937 96.7004 18.4183Z" fill="currentColor"/>
<path d="M24.1857 1.56145C24.1857 0.94451 23.9749 0.818872 23.4098 0.825603C21.093 0.852524 18.7785 0.854767 16.4617 0.825603C15.8809 0.818872 15.6723 0.98264 15.6925 1.58163C15.7284 2.66744 15.8091 3.74428 16.0132 4.80766C16.834 9.06566 18.4376 13.0477 20.8149 16.6349C21.8937 18.2637 21.8286 19.4908 20.8508 20.8122C20.8463 20.8167 20.8441 20.8189 20.8418 20.8234C20.6243 21.0971 20.1825 20.8705 20.169 20.8638C20.0434 20.6619 19.9268 20.4712 19.8146 20.2805C16.1724 14.0842 12.5257 7.89011 8.90145 1.68259C8.49103 0.9804 8.06266 0.702216 7.00633 0.854768C5.36689 1.09257 3.70501 1.15315 2.06108 0.946756C0.410422 0.738118 0 0.695486 0 1.63996C0.0179419 10.8267 0.0179419 20.0135 0 29.2003C0 29.9339 0.237731 30.0483 1.31649 29.9204C3.3058 29.6849 5.3153 29.7051 7.30462 29.9384C8.33852 30.0595 8.48206 29.8082 8.46636 29.1218C8.4372 27.695 8.22638 26.3018 7.9124 24.9154C6.92111 20.5385 4.92507 16.5968 2.60383 12.8054C2.26069 12.2446 2.24499 11.8363 2.59261 11.3136C2.8752 10.8895 3.1219 10.4409 3.38879 9.96526C3.51438 9.74092 3.83733 9.73644 3.96966 9.95629C4.06834 10.1201 4.15805 10.2704 4.24776 10.4207C7.90791 16.6506 11.5748 22.8739 15.2103 29.1195C15.5759 29.7454 15.9549 29.9922 16.6927 29.972C18.9332 29.9159 21.176 29.9361 23.4165 29.963C23.9794 29.9698 24.1835 29.8464 24.1835 29.2317C24.1633 20.0068 24.1633 10.7841 24.1835 1.5592L24.1857 1.56145Z" fill="currentColor"/>
<path d="M85.3723 1.57721C85.3813 0.973734 85.1727 0.825662 84.5986 0.827906C75.0759 0.84361 65.5532 0.84361 56.0305 0.827906C55.4317 0.827906 55.2635 1.02308 55.2747 1.59739C55.3061 3.16554 55.2859 4.73369 55.2859 6.30184C55.2859 9.75445 55.4249 9.84866 58.8855 8.94008C61.81 8.17283 63.9653 6.40727 65.7797 4.04047C65.9771 3.92382 66.0511 4.02252 66.0802 4.13245V4.28724C66.0802 12.5004 66.0914 20.7135 66.0623 28.9266C66.06 29.7275 66.1991 30.0125 67.076 29.981C69.2021 29.9048 71.3327 29.9137 73.4611 29.9788C74.2954 30.0035 74.5062 29.7904 74.5017 28.9468C74.4658 21.2564 74.4793 13.566 74.4793 5.87558V3.91933C74.4838 3.80268 74.5242 3.55589 74.7955 3.71518C75.0108 3.91484 75.0938 4.1818 75.2396 4.38595C77.516 7.59628 80.6222 9.21154 84.547 9.31474C85.1615 9.33044 85.388 9.18461 85.3768 8.52281C85.3387 6.20985 85.3432 3.89464 85.3746 1.57944L85.3723 1.57721Z" fill="currentColor"/>
<path d="M40.4232 0C32.365 0 25.8319 6.53506 25.8319 14.5956C25.8319 22.6562 32.365 29.1913 40.4232 29.1913C48.4814 29.1913 55.0145 22.6562 55.0145 14.5956C55.0145 6.53506 48.4814 0 40.4232 0ZM31.2616 16.1705C31.2616 16.5474 30.9229 16.8166 30.4744 16.8166C30.2995 16.8166 30.1335 16.7605 29.9944 16.673C29.8038 16.5519 29.6692 16.3657 29.6692 16.166C29.6648 14.5732 29.6648 12.9804 29.6692 11.3898C29.6692 10.995 29.9765 10.7661 30.4677 10.7706C30.5237 10.7706 30.5776 10.7751 30.6291 10.7841C31.0082 10.8402 31.2593 11.0869 31.2616 11.4324C31.2661 12.2221 31.2616 13.0118 31.2616 13.8015C31.2616 14.5912 31.2638 15.3808 31.2616 16.1705ZM33.3608 19.5536C33.0468 19.6859 32.6947 19.6388 32.4547 19.484C32.282 19.3741 32.1677 19.2081 32.1654 19.0107C32.1587 18.2793 32.1654 17.548 32.1654 16.8166C32.1654 15.5536 32.1654 14.2928 32.1654 13.0297C32.1654 12.617 32.5332 12.359 33.058 12.3949C33.0894 12.3949 33.1186 12.4038 33.1477 12.4083C33.5178 12.4644 33.76 12.7022 33.76 13.0342C33.7622 14.0258 33.76 15.0152 33.76 16.0067C33.76 17.0028 33.76 18.0011 33.76 18.9972C33.76 19.2417 33.6501 19.4369 33.3608 19.5581V19.5536ZM33.7578 9.48738C33.7578 9.80595 33.76 10.1268 33.7578 10.4453C33.7533 10.9366 33.4303 11.2754 32.9706 11.2776C32.8136 11.2776 32.6633 11.226 32.5355 11.1363C32.3179 10.9837 32.1677 10.728 32.1654 10.4431C32.1609 9.79698 32.1609 9.14864 32.1654 8.50254C32.1677 7.97982 32.4525 7.6949 32.9526 7.69266C32.9975 7.69266 33.0378 7.69715 33.0805 7.70388C33.4819 7.75773 33.751 8.06282 33.7578 8.50702C33.7645 8.83455 33.7578 9.16209 33.7578 9.48963V9.48738ZM36.2764 20.2154C36.2584 20.5698 36.1037 20.8256 35.8144 20.9714C35.5609 21.0993 35.2918 21.0612 35.081 20.9131C34.85 20.7516 34.6863 20.4577 34.684 20.0987C34.6795 18.2479 34.684 16.3971 34.684 14.5463C34.684 14.1178 34.684 13.6915 34.684 13.2631C34.684 11.8407 34.684 10.4162 34.684 8.99384C34.684 8.50927 34.8791 8.21313 35.2425 8.11666C35.3568 8.0875 35.4645 8.07852 35.5654 8.0875C35.9893 8.13012 36.2764 8.50701 36.2764 9.08133C36.2764 12.6259 36.2764 16.1705 36.2764 19.7151C36.2764 19.8811 36.2809 20.0471 36.2741 20.2131L36.2764 20.2154ZM38.7277 22.2075C38.7254 22.7774 38.4406 23.0914 37.9405 23.0937C37.7611 23.0937 37.6041 23.0443 37.4762 22.9501C37.2677 22.7998 37.1398 22.5373 37.1331 22.2031C37.1264 21.8464 37.1331 21.4874 37.1331 21.1285C37.1331 20.7785 37.1309 20.4308 37.1331 20.0808C37.1376 19.5446 37.4605 19.1722 37.9203 19.1722C37.9405 19.1722 37.9607 19.1767 37.9809 19.1789C38.3823 19.2171 38.7232 19.6142 38.7254 20.0853C38.7299 20.792 38.7299 21.5009 38.7254 22.2075H38.7277ZM38.7277 14.2143C38.7277 15.1969 38.7299 16.1817 38.7277 17.1643C38.7254 17.7319 38.5079 18.1806 38.1782 18.3287C37.9539 18.4296 37.7319 18.3915 37.5525 18.2524C37.308 18.064 37.1398 17.6915 37.1376 17.2159C37.1286 15.2148 37.1353 13.2137 37.1376 11.2103C37.1376 11.1296 37.1443 11.0488 37.1578 10.9703C37.2452 10.4543 37.5727 10.0796 37.9136 10.0796C37.9338 10.0796 37.9539 10.0752 37.9741 10.0796C38.3644 10.1312 38.721 10.6786 38.7277 11.2642C38.7367 12.2468 38.7277 13.2316 38.7299 14.2143H38.7277ZM41.2216 19.1498C41.2216 20.8884 41.2239 22.627 41.2216 24.3635C41.2216 25.0073 40.625 25.4358 40.0913 25.1823C40.0509 25.1621 40.0128 25.1419 39.9769 25.1172C39.7616 24.9737 39.645 24.7561 39.6293 24.4711C39.6203 24.3163 39.627 24.1593 39.627 24.0045C39.627 20.6753 39.627 17.3483 39.627 14.0191C39.627 13.3842 40.0262 13.014 40.5735 13.0993C40.6026 13.1038 40.6318 13.1038 40.6609 13.1127C41.0243 13.2025 41.2194 13.4807 41.2194 13.9361C41.2216 15.2731 41.2194 16.608 41.2194 17.9451C41.2194 18.3466 41.2194 18.7482 41.2194 19.1498H41.2216ZM43.7066 21.9585C43.7066 22.0393 43.6998 22.12 43.6864 22.1986C43.5944 22.7437 43.2311 23.1385 42.87 23.0892C42.7691 23.0757 42.6704 23.0286 42.5807 22.9568C42.3206 22.7504 42.121 22.3399 42.1187 21.9047C42.1097 20.9221 42.1187 19.9372 42.1165 18.9546C42.1165 17.972 42.1142 16.9871 42.1165 16.0045C42.1187 15.4369 42.3363 14.9882 42.6659 14.8402C42.7601 14.7998 42.8521 14.7818 42.9418 14.7841C43.3589 14.7976 43.7043 15.2731 43.7066 15.9529C43.7155 17.954 43.7088 19.9552 43.7066 21.9585ZM43.7088 12.0359C43.7088 12.3859 43.7111 12.7336 43.7088 13.0836C43.7043 13.6198 43.3814 13.9922 42.9216 13.9922C42.7736 13.9922 42.6323 13.9406 42.5089 13.8531C42.2779 13.6893 42.1165 13.4021 42.1142 13.0791C42.1097 12.3724 42.1097 11.6635 42.1142 10.9568C42.1165 10.387 42.4013 10.0729 42.9014 10.0707C42.9396 10.0707 42.9777 10.0774 43.0136 10.0819C43.4217 10.1335 43.6976 10.47 43.7066 10.9591C43.7133 11.3158 43.7066 11.6747 43.7066 12.0337L43.7088 12.0359ZM46.1579 14.5463C46.1579 16.3971 46.1601 18.2479 46.1579 20.0987C46.1579 20.7852 45.5613 21.2406 45.0276 20.9714C44.9917 20.9535 44.958 20.9333 44.9266 20.9131C44.7024 20.7605 44.5812 20.525 44.5655 20.2154C44.5566 20.0494 44.5633 19.8834 44.5633 19.7174C44.5633 16.1728 44.5633 12.6282 44.5633 9.08357C44.5633 8.41504 44.9513 8.01572 45.4896 8.09648C45.5254 8.10097 45.5613 8.10994 45.5995 8.11891C45.9628 8.21313 46.1579 8.5115 46.1579 8.99608C46.1601 10.4184 46.1579 11.843 46.1579 13.2653C46.1579 13.6938 46.1579 14.12 46.1579 14.5485V14.5463ZM47.8915 19.6299C47.7054 19.6299 47.5439 19.5783 47.4138 19.4863C47.2142 19.3472 47.0909 19.1116 47.0864 18.8155C47.0797 18.488 47.0864 18.1604 47.0864 17.8329C47.0864 17.5143 47.0841 17.1935 47.0864 16.875C47.0909 16.3836 47.4138 16.0449 47.8736 16.0426C47.9028 16.0426 47.9297 16.0494 47.9588 16.0516C48.3491 16.0987 48.6765 16.4577 48.6787 16.8772C48.6832 17.5233 48.6832 18.1716 48.6787 18.8177C48.6765 19.3405 48.3917 19.6254 47.8915 19.6276V19.6299ZM48.6787 10.5059C48.6787 11.7689 48.6787 13.0297 48.6787 14.2928C48.6787 14.7056 48.3109 14.9636 47.7861 14.9277C47.6112 14.9164 47.4632 14.8626 47.3465 14.7841C47.1828 14.6719 47.0864 14.5014 47.0841 14.2905C47.0819 13.299 47.0841 12.3096 47.0841 11.318C47.0841 10.3219 47.0841 9.32362 47.0841 8.32755C47.0841 8.08301 47.194 7.88784 47.4834 7.76669C47.665 7.69042 47.8601 7.67472 48.0396 7.70388C48.3894 7.76221 48.6765 7.99552 48.6787 8.30959C48.6855 9.04095 48.6787 9.7723 48.6787 10.5037V10.5059ZM50.3675 16.8189C50.1702 16.8189 49.9997 16.765 49.8651 16.6753C49.6925 16.5609 49.5826 16.3836 49.5803 16.1728C49.5758 15.3831 49.5803 14.5934 49.5803 13.8037C49.5803 13.014 49.5781 12.2244 49.5803 11.4347C49.5826 11.0421 49.9078 10.7774 50.3743 10.7729C50.4505 10.7729 50.52 10.7796 50.5873 10.7886C50.9506 10.8447 51.1727 11.0578 51.1727 11.3921C51.1772 12.9849 51.1772 14.5777 51.1727 16.1683C51.1727 16.5138 50.7824 16.8189 50.3675 16.8189Z" fill="currentColor"/>
</g>
<defs>
<clipPath id="clip0_1158_4730">
<rect width="109.557" height="30" fill="currentColor"/>
</clipPath>
</defs>
</svg>
