<svg width="28" height="24" viewBox="0 0 28 24" fill="none" xmlns="http://www.w3.org/2000/svg">
<g clip-path="url(#clip0_2956_29153)">
<path d="M14.0183 4.33317C14.713 3.1177 15.4077 2.15136 16.2706 1.46435C17.4479 0.498007 18.8373 -0.0078125 20.6435 -0.0078125C22.691 -0.0078125 24.5265 0.852835 25.8501 2.21175C27.1737 3.57067 28 5.5109 28 7.58703C28 11.2033 26.9909 13.9286 24.702 16.4728C22.479 18.9113 19.1152 21.1687 14.362 23.8865C14.1207 24.0299 13.8428 24.0299 13.6015 23.8487C9.36746 21.1989 6.00366 18.9793 3.67825 16.503C1.28702 14.0041 0 11.2486 0 7.59458C0 5.51845 0.833638 3.61597 2.18647 2.2193C3.50274 0.860385 5.34552 -0.000262958 7.39305 -0.000262958C10.6179 -0.000262958 12.4241 1.43415 14.0183 4.33317Z" fill="white" fill-opacity="0.45"/>
</g>
<defs>
<clipPath id="clip0_2956_29153">
<rect width="28" height="24" fill="white"/>
</clipPath>
</defs>
</svg>
