<svg width="23" height="24" viewBox="0 0 23 24" fill="none" xmlns="http://www.w3.org/2000/svg">
<g clip-path="url(#clip0_2956_29154)">
<g clip-path="url(#clip1_2956_29154)">
<path d="M6.85714 0H1.87013C1.37416 7.03344e-05 0.898528 0.199717 0.547826 0.555034C0.197123 0.91035 6.9421e-05 1.39224 0 1.89474V22.1053C7.43783e-05 22.6078 0.197129 23.0896 0.54783 23.445C0.898532 23.8003 1.37416 23.9999 1.87013 24H6.85714C7.35311 23.9999 7.82874 23.8003 8.17944 23.445C8.53015 23.0896 8.7272 22.6078 8.72727 22.1053V1.89474C8.7272 1.39224 8.53015 0.91035 8.17945 0.555034C7.82875 0.199717 7.35311 7.03344e-05 6.85714 0ZM7.48052 22.1053C7.48019 22.2727 7.41441 22.4331 7.29757 22.5515C7.18074 22.6699 7.02237 22.7365 6.85714 22.7368H1.87013C1.7049 22.7365 1.54653 22.6699 1.4297 22.5515C1.31287 22.4331 1.24708 22.2727 1.24675 22.1053V1.89474C1.24707 1.72733 1.31285 1.56687 1.42969 1.4485C1.54652 1.33012 1.7049 1.26348 1.87013 1.26316H6.85714C7.02238 1.26348 7.18075 1.33012 7.29759 1.4485C7.41442 1.56687 7.4802 1.72733 7.48052 1.89474V22.1053Z" fill="white" fill-opacity="0.45"/>
<path d="M7.48052 22.1053C7.48019 22.2727 7.41441 22.4331 7.29757 22.5515C7.18074 22.6699 7.02237 22.7365 6.85714 22.7368H1.87013C1.7049 22.7365 1.54653 22.6699 1.4297 22.5515C1.31287 22.4331 1.24708 22.2727 1.24675 22.1053V1.89474C1.24707 1.72733 1.31285 1.56687 1.42969 1.4485C1.54652 1.33012 1.7049 1.26348 1.87013 1.26316H6.85714C7.02238 1.26348 7.18075 1.33012 7.29759 1.4485C7.41442 1.56687 7.4802 1.72733 7.48052 1.89474V22.1053Z" fill="white" fill-opacity="0.45"/>
<path d="M20.5844 0H15.5974C15.1015 7.03344e-05 14.6258 0.199717 14.2751 0.555034C13.9244 0.91035 13.7274 1.39224 13.7273 1.89474V22.1053C13.7274 22.6078 13.9244 23.0896 14.2751 23.445C14.6258 23.8003 15.1015 23.9999 15.5974 24H20.5844C21.0804 23.9999 21.556 23.8003 21.9067 23.445C22.2574 23.0896 22.4545 22.6078 22.4546 22.1053V1.89474C22.4545 1.39224 22.2574 0.91035 21.9067 0.555034C21.556 0.199717 21.0804 7.03344e-05 20.5844 0ZM21.2078 22.1053C21.2075 22.2727 21.1417 22.4331 21.0249 22.5515C20.908 22.6699 20.7497 22.7365 20.5844 22.7368H15.5974C15.4322 22.7365 15.2738 22.6699 15.157 22.5515C15.0402 22.4331 14.9744 22.2727 14.974 22.1053V1.89474C14.9744 1.72733 15.0401 1.56687 15.157 1.4485C15.2738 1.33012 15.4322 1.26348 15.5974 1.26316H20.5844C20.7497 1.26348 20.908 1.33012 21.0249 1.4485C21.1417 1.56687 21.2075 1.72733 21.2078 1.89474V22.1053Z" fill="white" fill-opacity="0.45"/>
<path d="M21.2078 22.1053C21.2075 22.2727 21.1417 22.4331 21.0249 22.5515C20.908 22.6699 20.7497 22.7365 20.5844 22.7368H15.5974C15.4322 22.7365 15.2738 22.6699 15.157 22.5515C15.0402 22.4331 14.9744 22.2727 14.974 22.1053V1.89474C14.9744 1.72733 15.0401 1.56687 15.157 1.4485C15.2738 1.33012 15.4322 1.26348 15.5974 1.26316H20.5844C20.7497 1.26348 20.908 1.33012 21.0249 1.4485C21.1417 1.56687 21.2075 1.72733 21.2078 1.89474V22.1053Z" fill="white" fill-opacity="0.45"/>
</g>
</g>
<defs>
<clipPath id="clip0_2956_29154">
<rect width="22.4545" height="24" fill="white"/>
</clipPath>
<clipPath id="clip1_2956_29154">
<rect width="22.4545" height="24" fill="white"/>
</clipPath>
</defs>
</svg>
