<svg width="30" height="25" viewBox="0 0 30 25" fill="none" xmlns="http://www.w3.org/2000/svg">
<path d="M14.8449 4.514C15.5806 3.24788 16.3163 2.24128 17.23 1.52564C18.4768 0.519037 19.9481 -0.00785828 21.8609 -0.00785828C24.0291 -0.00785828 25.9728 0.88865 27.3745 2.30419C28.7761 3.71973 29.6512 5.7408 29.6512 7.90343C29.6512 11.6703 28.5825 14.5093 26.1587 17.1595C23.8046 19.6996 20.2424 22.051 15.2089 24.882C14.9534 25.0315 14.6591 25.0315 14.4035 24.8427C9.91986 22.0824 6.35769 19.7704 3.89515 17.1909C1.36292 14.5879 0 11.7175 0 7.9113C0 5.74867 0.882798 3.76691 2.31541 2.31205C3.7093 0.896514 5.66075 5.83008e-06 7.82902 5.83008e-06C11.2441 5.83008e-06 13.1568 1.49419 14.8449 4.514Z" fill="currentColor"/>
</svg>
