<svg width="6" height="21" viewBox="0 0 6 21" fill="none" xmlns="http://www.w3.org/2000/svg">
<path d="M3.4729 13C2.80986 13 2.17397 12.7366 1.70513 12.2678C1.23629 11.7989 0.9729 11.163 0.9729 10.5C0.9729 9.83696 1.23629 9.20107 1.70513 8.73223C2.17397 8.26339 2.80986 8 3.4729 8C4.13594 8 4.77183 8.26339 5.24067 8.73223C5.70951 9.20107 5.9729 9.83696 5.9729 10.5C5.9729 11.163 5.70951 11.7989 5.24067 12.2678C4.77183 12.7366 4.13594 13 3.4729 13ZM3.4729 5.5C2.80986 5.5 2.17397 5.23661 1.70513 4.76777C1.23629 4.29893 0.9729 3.66304 0.9729 3C0.9729 2.33696 1.23629 1.70107 1.70513 1.23223C2.17397 0.763392 2.80986 0.5 3.4729 0.5C4.13594 0.5 4.77183 0.763392 5.24067 1.23223C5.70951 1.70107 5.9729 2.33696 5.9729 3C5.9729 3.66304 5.70951 4.29893 5.24067 4.76777C4.77183 5.23661 4.13594 5.5 3.4729 5.5ZM3.4729 20.5C2.80986 20.5 2.17397 20.2366 1.70513 19.7678C1.23629 19.2989 0.9729 18.663 0.9729 18C0.9729 17.337 1.23629 16.7011 1.70513 16.2322C2.17397 15.7634 2.80986 15.5 3.4729 15.5C4.13594 15.5 4.77183 15.7634 5.24067 16.2322C5.70951 16.7011 5.9729 17.337 5.9729 18C5.9729 18.663 5.70951 19.2989 5.24067 19.7678C4.77183 20.2366 4.13594 20.5 3.4729 20.5Z" fill="white"/>
</svg>
