<svg width="16" height="20" viewBox="0 0 16 20" fill="none" xmlns="http://www.w3.org/2000/svg">
<path fill-rule="evenodd" clip-rule="evenodd" d="M16 2V15C15.9997 15.6368 15.7967 16.2569 15.4206 16.7707C15.0444 17.2844 14.5145 17.6652 13.9076 17.8578C13.3007 18.0505 12.6482 18.045 12.0446 17.8422C11.441 17.6394 10.9176 17.2498 10.5501 16.7298C10.1826 16.2098 9.99005 15.5864 10.0004 14.9497C10.0107 14.313 10.2234 13.6961 10.6076 13.1883C10.9918 12.6806 11.5276 12.3082 12.1375 12.1251C12.7473 11.942 13.3997 11.9577 14 12.17V4H6V17C5.99967 17.6368 5.79673 18.2569 5.42057 18.7707C5.0444 19.2844 4.51451 19.6652 3.90759 19.8578C3.30067 20.0505 2.64819 20.045 2.04459 19.8422C1.44098 19.6394 0.917555 19.2498 0.550057 18.7298C0.182559 18.2098 -0.0099477 17.5864 0.00039605 16.9497C0.0107398 16.313 0.223397 15.6961 0.607593 15.1883C0.99179 14.6805 1.52759 14.3082 2.13747 14.1251C2.74735 13.942 3.39966 13.9577 4 14.17V2C4 1.46957 4.21071 0.960859 4.58579 0.585786C4.96086 0.210714 5.46957 0 6 0H14C14.5304 0 15.0391 0.210714 15.4142 0.585786C15.7893 0.960859 16 1.46957 16 2Z" fill="white"/>
</svg>
