<svg width="56" height="55" viewBox="0 0 56 55" fill="none" xmlns="http://www.w3.org/2000/svg">
<path d="M27.5911 0C12.3536 0 0 12.3129 0 27.5C0 42.6871 12.3536 55 27.5911 55C42.8285 55 55.1821 42.6871 55.1821 27.5C55.1821 12.3129 42.8285 0 27.5911 0ZM10.2671 30.4673C10.2671 31.1774 9.62676 31.6846 8.77859 31.6846C8.4478 31.6846 8.13398 31.5789 7.87104 31.4141C7.51057 31.1858 7.25612 30.835 7.25612 30.4588C7.24764 27.4577 7.24764 24.4567 7.25612 21.4598C7.25612 20.7159 7.83712 20.2847 8.76587 20.2932C8.87189 20.2932 8.97367 20.3016 9.07121 20.3186C9.78791 20.4242 10.2629 20.8892 10.2671 21.5401C10.2756 23.028 10.2671 24.5158 10.2671 26.0037C10.2671 27.4916 10.2714 28.9794 10.2671 30.4673ZM14.2323 36.8414C13.6386 37.0908 12.9728 37.002 12.519 36.7103C12.1925 36.5032 11.9762 36.1904 11.972 35.8185C11.9592 34.4405 11.972 33.0626 11.972 31.6846C11.972 29.3049 11.972 26.9294 11.972 24.5497C11.972 23.7719 12.6675 23.2858 13.6598 23.3534C13.7192 23.3534 13.7743 23.3703 13.8295 23.3788C14.5292 23.4845 14.9872 23.9325 14.9872 24.5581C14.9915 26.4264 14.9872 28.2904 14.9872 30.1587C14.9872 32.0354 14.9872 33.9164 14.9872 35.7931C14.9872 36.2538 14.7794 36.6216 14.2323 36.8498V36.8414ZM14.9872 17.8754C14.9872 18.4756 14.9915 19.0801 14.9872 19.6803C14.9787 20.606 14.368 21.2442 13.4987 21.2485C13.2018 21.2485 12.9177 21.1513 12.6759 20.9822C12.2646 20.6947 11.9804 20.2129 11.9762 19.6761C11.9677 18.4587 11.9677 17.2372 11.9762 16.0198C11.9804 15.035 12.519 14.4981 13.4647 14.4939C13.5496 14.4939 13.6259 14.5024 13.7065 14.5151C14.4656 14.6165 14.9745 15.1914 14.9872 16.0283C14.9999 16.6454 14.9872 17.2625 14.9872 17.8796V17.8754ZM19.7497 38.0883C19.7158 38.7561 19.4232 39.238 18.8761 39.5127C18.3969 39.7537 17.888 39.6818 17.4893 39.4029C17.0525 39.0985 16.7429 38.5448 16.7387 37.8685C16.7302 34.3814 16.7387 30.8942 16.7387 27.407C16.7387 26.5997 16.7387 25.7966 16.7387 24.9892C16.7387 22.3094 16.7387 19.6254 16.7387 16.9455C16.7387 16.0325 17.1076 15.4746 17.7947 15.2928C18.0109 15.2379 18.2145 15.2209 18.4053 15.2379C19.2069 15.3182 19.7497 16.0283 19.7497 17.1104C19.7497 23.7888 19.7497 30.4673 19.7497 37.1457C19.7497 37.4585 19.7582 37.7713 19.7455 38.0841L19.7497 38.0883ZM24.385 41.8418C24.3807 42.9154 23.8421 43.5071 22.8964 43.5114C22.5572 43.5114 22.2603 43.4184 22.0186 43.2408C21.6242 42.9576 21.3824 42.4631 21.3697 41.8333C21.357 41.1613 21.3697 40.4849 21.3697 39.8086C21.3697 39.1492 21.3655 38.4941 21.3697 37.8347C21.3782 36.8245 21.9889 36.1228 22.8583 36.1228C22.8964 36.1228 22.9346 36.1313 22.9728 36.1355C23.7319 36.2073 24.3765 36.9555 24.3807 37.8432C24.3892 39.1746 24.3892 40.5103 24.3807 41.8418H24.385ZM24.385 26.7814C24.385 28.6328 24.3892 30.4884 24.385 32.3398C24.3807 33.4092 23.9694 34.2545 23.346 34.5335C22.9219 34.7237 22.502 34.6519 22.1628 34.3898C21.7005 34.0347 21.3824 33.3331 21.3782 32.437C21.3612 28.6666 21.374 24.8963 21.3782 21.1217C21.3782 20.9695 21.3909 20.8173 21.4164 20.6694C21.5818 19.6972 22.2009 18.9913 22.8455 18.9913C22.8837 18.9913 22.9219 18.9829 22.96 18.9913C23.6979 19.0885 24.3722 20.1199 24.385 21.2231C24.4019 23.0745 24.385 24.9301 24.3892 26.7814H24.385ZM29.0966 36.0805C29.0966 39.3564 29.1008 42.6322 29.0966 45.9038C29.0966 47.1169 27.9685 47.9242 26.9592 47.4466C26.8828 47.4085 26.8107 47.3705 26.7429 47.324C26.3358 47.0535 26.1152 46.6435 26.0856 46.1067C26.0686 45.815 26.0813 45.5191 26.0813 45.2275C26.0813 38.9548 26.0813 32.6864 26.0813 26.4137C26.0813 25.2175 26.8362 24.5201 27.871 24.6807C27.9261 24.6891 27.9812 24.6891 28.0364 24.706C28.7234 24.8751 29.0923 25.3992 29.0923 26.2573C29.0966 28.7765 29.0923 31.2915 29.0923 33.8107C29.0923 34.5673 29.0923 35.3239 29.0923 36.0805H29.0966ZM33.7997 41.3726C33.7997 41.5247 33.787 41.6769 33.7615 41.8249C33.5876 42.852 32.9006 43.5959 32.2178 43.5029C32.027 43.4776 31.8404 43.3888 31.6708 43.2535C31.1788 42.8647 30.8014 42.0912 30.7972 41.2711C30.7802 39.4198 30.7972 37.5642 30.7929 35.7128C30.7929 33.8614 30.7887 32.0059 30.7929 30.1545C30.7972 29.0851 31.2085 28.2397 31.8319 27.9607C32.01 27.8847 32.1839 27.8508 32.3535 27.8551C33.1424 27.8804 33.7954 28.7765 33.7997 30.0572C33.8166 33.8276 33.8039 37.598 33.7997 41.3726ZM33.7997 22.6772C33.7997 23.3365 33.8039 23.9917 33.7997 24.6511C33.7912 25.6613 33.1805 26.363 32.3111 26.363C32.0312 26.363 31.7641 26.2658 31.5308 26.1009C31.094 25.7923 30.7887 25.2513 30.7844 24.6426C30.7759 23.3112 30.7759 21.9755 30.7844 20.644C30.7887 19.5704 31.3273 18.9786 32.273 18.9744C32.3451 18.9744 32.4172 18.9871 32.485 18.9955C33.2569 19.0928 33.7785 19.7268 33.7954 20.6482C33.8082 21.3203 33.7954 21.9966 33.7954 22.6729L33.7997 22.6772ZM38.4349 27.407C38.4349 30.8942 38.4392 34.3814 38.4349 37.8685C38.4349 39.1619 37.3069 40.02 36.2976 39.5127C36.2297 39.4789 36.1661 39.4409 36.1067 39.4029C35.6826 39.1154 35.4536 38.6716 35.4239 38.0883C35.407 37.7755 35.4197 37.4627 35.4197 37.1499C35.4197 30.4715 35.4197 23.793 35.4197 17.1146C35.4197 15.855 36.1534 15.1026 37.1712 15.2548C37.239 15.2632 37.3069 15.2801 37.379 15.297C38.066 15.4746 38.4349 16.0367 38.4349 16.9497C38.4392 19.6296 38.4349 22.3136 38.4349 24.9935C38.4349 25.8008 38.4349 26.6039 38.4349 27.4112V27.407ZM41.7131 36.9851C41.3611 36.9851 41.0558 36.8879 40.8098 36.7146C40.4324 36.4525 40.1991 36.0087 40.1907 35.4507C40.1779 34.8336 40.1907 34.2165 40.1907 33.5994C40.1907 32.9991 40.1864 32.3947 40.1907 31.7945C40.1991 30.8688 40.8098 30.2306 41.6792 30.2263C41.7343 30.2263 41.7852 30.239 41.8404 30.2432C42.5783 30.332 43.1974 31.0083 43.2017 31.7987C43.2102 33.0161 43.2102 34.2376 43.2017 35.455C43.1974 36.4398 42.6589 36.9766 41.7131 36.9809V36.9851ZM43.2017 19.7944C43.2017 22.1742 43.2017 24.5497 43.2017 26.9294C43.2017 27.7071 42.5062 28.1932 41.5138 28.1256C41.183 28.1044 40.9031 28.003 40.6826 27.8551C40.373 27.6437 40.1907 27.3225 40.1864 26.9252C40.1822 25.0569 40.1864 23.1928 40.1864 21.3246C40.1864 19.4478 40.1864 17.5669 40.1864 15.6901C40.1864 15.2294 40.3942 14.8617 40.9413 14.6334C41.2848 14.4897 41.6538 14.4601 41.993 14.5151C42.6546 14.625 43.1974 15.0645 43.2017 15.6563C43.2144 17.0343 43.2017 18.4122 43.2017 19.7902V19.7944ZM46.3951 31.6888C46.0219 31.6888 45.6996 31.5874 45.4451 31.4183C45.1186 31.2027 44.9107 30.8688 44.9065 30.4715C44.898 28.9836 44.9065 27.4958 44.9065 26.0079C44.9065 24.5201 44.9023 23.0322 44.9065 21.5444C44.9107 20.8047 45.5257 20.3059 46.4078 20.2974C46.552 20.2974 46.6834 20.3101 46.8107 20.327C47.4977 20.4327 47.9175 20.8342 47.9175 21.464C47.926 24.4651 47.926 27.4662 47.9175 30.463C47.9175 31.114 47.1796 31.6888 46.3951 31.6888Z" fill="#F5004F"/>
</svg>
