<svg width="18" height="18" viewBox="0 0 18 18" fill="none" xmlns="http://www.w3.org/2000/svg">
<g id="download icon 1" clip-path="url(#clip0_3552_16348)">
<path id="Vector" d="M7.99089 2.1315C9.03553 1.08687 10.4524 0.5 11.9297 0.5C15.0061 0.5 17.5 2.99391 17.5 6.0703C17.5 7.54765 16.9132 8.96447 15.8685 10.0091L13.6901 12.1875L12.1875 10.6849L14.3659 8.5065C15.012 7.86038 15.375 6.98406 15.375 6.0703C15.375 4.16752 13.8325 2.625 11.9297 2.625C11.0159 2.625 10.1396 2.98798 9.4935 3.63411L7.3151 5.8125L5.8125 4.3099L7.99089 2.1315Z" fill="currentColor"/>
<path id="Vector_2" d="M8.5065 14.3659L10.6849 12.1875L12.1875 13.6901L10.0091 15.8685C8.96447 16.9132 7.54765 17.5 6.0703 17.5C2.99391 17.5 0.5 15.0061 0.5 11.9297C0.5 10.4524 1.08687 9.03553 2.1315 7.99089L4.3099 5.8125L5.8125 7.3151L3.63411 9.4935C2.98798 10.1396 2.625 11.0159 2.625 11.9297C2.625 13.8325 4.16752 15.375 6.0703 15.375C6.98406 15.375 7.86038 15.012 8.5065 14.3659Z" fill="currentColor"/>
<path id="Vector_3" d="M6.56377 12.9386L12.9388 6.56364L11.4362 5.06104L5.06116 11.436L6.56377 12.9386Z" fill="currentColor"/>
</g>
<defs>
<clipPath id="clip0_3552_16348">
<rect width="17" height="17" fill="currentColor" transform="translate(0.5 0.5)"/>
</clipPath>
</defs>
</svg>
