<svg width="196" height="24" viewBox="0 0 196 24" fill="none" xmlns="http://www.w3.org/2000/svg">
<path d="M195.556 12.7555C195.311 12.7555 195.112 12.5742 195.112 12.3503V12.0004C195.112 11.7768 195.31 11.5952 195.556 11.5952C195.801 11.5952 196 11.7765 196 12.0004V12.3503C196 12.5742 195.801 12.7555 195.556 12.7555Z" fill="white"/>
<path d="M193.086 13.3231C192.841 13.3231 192.642 13.1417 192.642 12.9179V11.9999C192.642 11.7764 192.84 11.5947 193.086 11.5947C193.331 11.5947 193.53 11.776 193.53 11.9999V12.9179C193.53 13.1414 193.331 13.3231 193.086 13.3231Z" fill="white"/>
<path d="M190.616 13.86C190.371 13.86 190.172 13.6787 190.172 13.4548V11.9999C190.172 11.7764 190.371 11.5947 190.616 11.5947C190.862 11.5947 191.06 11.776 191.06 11.9999V13.4548C191.06 13.6784 190.862 13.86 190.616 13.86Z" fill="white"/>
<path d="M188.146 14.8517C187.901 14.8517 187.702 14.6703 187.702 14.4465V11.9999C187.702 11.7764 187.901 11.5947 188.146 11.5947C188.392 11.5947 188.591 11.776 188.591 11.9999V14.4465C188.591 14.67 188.392 14.8517 188.146 14.8517Z" fill="white"/>
<path d="M185.677 13.6285C185.432 13.6285 185.232 13.4472 185.232 13.2233V11.9999C185.232 11.7764 185.431 11.5947 185.677 11.5947C185.922 11.5947 186.121 11.776 186.121 11.9999V13.2233C186.121 13.4469 185.922 13.6285 185.677 13.6285Z" fill="white"/>
<path d="M183.207 12.889C182.962 12.889 182.762 12.7077 182.762 12.4838V11.9999C182.762 11.7764 182.961 11.5947 183.207 11.5947C183.452 11.5947 183.651 11.776 183.651 11.9999V12.4838C183.651 12.7074 183.452 12.889 183.207 12.889Z" fill="white"/>
<path d="M180.737 14.1905C180.492 14.1905 180.293 14.0092 180.293 13.7854V11.9999C180.293 11.7764 180.492 11.5947 180.737 11.5947C180.982 11.5947 181.181 11.776 181.181 11.9999V13.7854C181.181 14.0092 180.982 14.1905 180.737 14.1905Z" fill="white"/>
<path d="M178.267 14.976C178.022 14.976 177.823 14.7947 177.823 14.5708V12.0004C177.823 11.7768 178.022 11.5952 178.267 11.5952C178.513 11.5952 178.711 11.7765 178.711 12.0004V14.5708C178.711 14.7943 178.513 14.976 178.267 14.976Z" fill="white"/>
<path d="M175.798 16.3188C175.553 16.3188 175.354 16.1375 175.354 15.9136V12.0004C175.354 11.7768 175.552 11.5952 175.798 11.5952C176.043 11.5952 176.242 11.7765 176.242 12.0004V15.9136C176.242 16.1372 176.043 16.3188 175.798 16.3188Z" fill="white"/>
<path d="M173.328 17.3517C173.082 17.3517 172.883 17.1704 172.883 16.9466V12.0004C172.883 11.7768 173.082 11.5952 173.328 11.5952C173.573 11.5952 173.772 11.7765 173.772 12.0004V16.9466C173.772 17.1701 173.573 17.3517 173.328 17.3517Z" fill="white"/>
<path d="M170.858 16.8691C170.613 16.8691 170.414 16.6878 170.414 16.4639V12.0004C170.414 11.7768 170.613 11.5952 170.858 11.5952C171.103 11.5952 171.302 11.7765 171.302 12.0004V16.4639C171.302 16.6875 171.103 16.8691 170.858 16.8691Z" fill="white"/>
<path d="M168.388 18.0559C168.143 18.0559 167.944 17.8746 167.944 17.6507V11.9999C167.944 11.7764 168.143 11.5947 168.388 11.5947C168.634 11.5947 168.833 11.776 168.833 11.9999V17.6507C168.833 17.8742 168.634 18.0559 168.388 18.0559Z" fill="white"/>
<path d="M165.919 19.0056C165.674 19.0056 165.474 18.8243 165.474 18.6004V11.9999C165.474 11.7764 165.673 11.5947 165.919 11.5947C166.164 11.5947 166.363 11.776 166.363 11.9999V18.6004C166.363 18.824 166.164 19.0056 165.919 19.0056Z" fill="white"/>
<path d="M163.449 18.5534C163.204 18.5534 163.004 18.3721 163.004 18.1483V11.9999C163.004 11.7764 163.203 11.5947 163.449 11.5947C163.694 11.5947 163.893 11.776 163.893 11.9999V18.1483C163.893 18.3721 163.694 18.5534 163.449 18.5534Z" fill="white"/>
<path d="M160.979 17.5813C160.734 17.5813 160.535 17.4 160.535 17.1762V12.0004C160.535 11.7768 160.733 11.5952 160.979 11.5952C161.224 11.5952 161.423 11.7765 161.423 12.0004V17.1762C161.423 17.3997 161.224 17.5813 160.979 17.5813Z" fill="white"/>
<path d="M158.509 19.1839C158.264 19.1839 158.065 19.0026 158.065 18.7787V12.0004C158.065 11.7768 158.264 11.5952 158.509 11.5952C158.755 11.5952 158.953 11.7765 158.953 12.0004V18.7787C158.953 19.0026 158.755 19.1839 158.509 19.1839Z" fill="white"/>
<path d="M156.039 18.5534C155.794 18.5534 155.595 18.3721 155.595 18.1483V11.9999C155.595 11.7764 155.794 11.5947 156.039 11.5947C156.285 11.5947 156.484 11.776 156.484 11.9999V18.1483C156.484 18.3721 156.285 18.5534 156.039 18.5534Z" fill="white"/>
<path d="M153.569 15.7944C153.324 15.7944 153.125 15.6131 153.125 15.3892V11.9999C153.125 11.7764 153.324 11.5947 153.569 11.5947C153.815 11.5947 154.014 11.776 154.014 11.9999V15.3892C154.014 15.6128 153.815 15.7944 153.569 15.7944Z" fill="white"/>
<path d="M151.1 14.3617C150.855 14.3617 150.656 14.1804 150.656 13.9565V11.9999C150.656 11.7764 150.854 11.5947 151.1 11.5947C151.345 11.5947 151.544 11.776 151.544 11.9999V13.9565C151.544 14.1801 151.345 14.3617 151.1 14.3617Z" fill="white"/>
<path d="M148.63 13.298C148.385 13.298 148.186 13.1167 148.186 12.8928V11.9999C148.186 11.7764 148.385 11.5947 148.63 11.5947C148.876 11.5947 149.074 11.776 149.074 11.9999V12.8928C149.074 13.1163 148.876 13.298 148.63 13.298Z" fill="white"/>
<path d="M146.161 12.8515C145.915 12.8515 145.716 12.6702 145.716 12.4463V11.9999C145.716 11.7764 145.915 11.5947 146.161 11.5947C146.406 11.5947 146.605 11.776 146.605 11.9999V12.4463C146.605 12.6699 146.406 12.8515 146.161 12.8515Z" fill="white"/>
<path d="M143.69 12.7555C143.445 12.7555 143.246 12.5742 143.246 12.3503V12.0004C143.246 11.7768 143.445 11.5952 143.69 11.5952C143.936 11.5952 144.135 11.7765 144.135 12.0004V12.3503C144.135 12.5742 143.936 12.7555 143.69 12.7555Z" fill="white"/>
<path d="M141.221 13.298C140.975 13.298 140.777 13.1167 140.777 12.8928V11.9999C140.777 11.7764 140.975 11.5947 141.221 11.5947C141.466 11.5947 141.665 11.776 141.665 11.9999V12.8928C141.665 13.1163 141.466 13.298 141.221 13.298Z" fill="white"/>
<path d="M138.751 14.0997C138.506 14.0997 138.307 13.9184 138.307 13.6946V11.9999C138.307 11.7764 138.506 11.5947 138.751 11.5947C138.997 11.5947 139.195 11.776 139.195 11.9999V13.6946C139.195 13.9184 138.997 14.0997 138.751 14.0997Z" fill="white"/>
<path d="M136.281 14.993C136.036 14.993 135.837 14.8116 135.837 14.5878V11.9999C135.837 11.7764 136.036 11.5947 136.281 11.5947C136.527 11.5947 136.726 11.776 136.726 11.9999V14.5878C136.726 14.8116 136.527 14.993 136.281 14.993Z" fill="white"/>
<path d="M133.811 16.0381C133.566 16.0381 133.367 15.8568 133.367 15.6329V12.0004C133.367 11.7768 133.566 11.5952 133.811 11.5952C134.057 11.5952 134.256 11.7765 134.256 12.0004V15.6329C134.256 15.8565 134.057 16.0381 133.811 16.0381Z" fill="white"/>
<path d="M131.342 15.4794C131.096 15.4794 130.897 15.2981 130.897 15.0742V11.9999C130.897 11.7764 131.096 11.5947 131.342 11.5947C131.587 11.5947 131.786 11.776 131.786 11.9999V15.0742C131.786 15.2978 131.587 15.4794 131.342 15.4794Z" fill="white"/>
<path d="M128.872 14.8783C128.627 14.8783 128.428 14.697 128.428 14.4732V11.9999C128.428 11.7764 128.627 11.5947 128.872 11.5947C129.117 11.5947 129.316 11.776 129.316 11.9999V14.4732C129.316 14.6967 129.117 14.8783 128.872 14.8783Z" fill="white"/>
<path d="M126.402 14.2218C126.157 14.2218 125.958 14.0405 125.958 13.8167V12.0004C125.958 11.7768 126.157 11.5952 126.402 11.5952C126.648 11.5952 126.846 11.7765 126.846 12.0004V13.8167C126.846 14.0405 126.648 14.2218 126.402 14.2218Z" fill="white"/>
<path d="M123.932 15.2305C123.687 15.2305 123.488 15.0492 123.488 14.8253V11.9999C123.488 11.7764 123.687 11.5947 123.932 11.5947C124.178 11.5947 124.376 11.776 124.376 11.9999V14.8253C124.376 15.0488 124.178 15.2305 123.932 15.2305Z" fill="white"/>
<path d="M121.463 16.0381C121.217 16.0381 121.018 15.8568 121.018 15.6329V12.0004C121.018 11.7768 121.217 11.5952 121.463 11.5952C121.708 11.5952 121.907 11.7765 121.907 12.0004V15.6329C121.907 15.8565 121.708 16.0381 121.463 16.0381Z" fill="white"/>
<path d="M118.993 17.1061C118.748 17.1061 118.549 16.9248 118.549 16.701V11.9999C118.549 11.7764 118.748 11.5947 118.993 11.5947C119.238 11.5947 119.437 11.776 119.437 11.9999V16.701C119.437 16.9245 119.238 17.1061 118.993 17.1061Z" fill="white"/>
<path d="M116.523 18.7951C116.278 18.7951 116.079 18.6138 116.079 18.3899V11.9999C116.079 11.7764 116.278 11.5947 116.523 11.5947C116.769 11.5947 116.968 11.776 116.968 11.9999V18.3899C116.968 18.6134 116.769 18.7951 116.523 18.7951Z" fill="white"/>
<path d="M114.053 17.5813C113.808 17.5813 113.609 17.4 113.609 17.1762V12.0004C113.609 11.7768 113.808 11.5952 114.053 11.5952C114.299 11.5952 114.498 11.7765 114.498 12.0004V17.1762C114.498 17.3997 114.299 17.5813 114.053 17.5813Z" fill="white"/>
<path d="M111.584 19.767C111.339 19.767 111.139 19.5857 111.139 19.3619V11.9999C111.139 11.7764 111.338 11.5947 111.584 11.5947C111.829 11.5947 112.028 11.776 112.028 11.9999V19.3619C112.028 19.5854 111.829 19.767 111.584 19.767Z" fill="white"/>
<path d="M109.114 20.9097C108.868 20.9097 108.67 20.7284 108.67 20.5045V12.0004C108.67 11.7768 108.868 11.5952 109.114 11.5952C109.359 11.5952 109.558 11.7765 109.558 12.0004V20.5045C109.558 20.7284 109.359 20.9097 109.114 20.9097Z" fill="white"/>
<path d="M106.644 21.1782C106.399 21.1782 106.2 20.9968 106.2 20.773V11.9999C106.2 11.7764 106.399 11.5947 106.644 11.5947C106.89 11.5947 107.088 11.776 107.088 11.9999V20.773C107.088 20.9965 106.89 21.1782 106.644 21.1782Z" fill="white"/>
<path d="M104.174 24.0001C103.929 24.0001 103.73 23.8187 103.73 23.5949V11.9999C103.73 11.7764 103.929 11.5947 104.174 11.5947C104.42 11.5947 104.618 11.776 104.618 11.9999V23.5949C104.618 23.8184 104.42 24.0001 104.174 24.0001Z" fill="white"/>
<path d="M101.704 22.8579C101.459 22.8579 101.26 22.6766 101.26 22.4527V11.9999C101.26 11.7764 101.459 11.5947 101.704 11.5947C101.95 11.5947 102.149 11.776 102.149 11.9999V22.4527C102.149 22.6763 101.95 22.8579 101.704 22.8579Z" fill="white"/>
<path d="M99.2347 19.4984C98.9897 19.4984 98.7905 19.3171 98.7905 19.0932V11.9999C98.7905 11.7764 98.9893 11.5947 99.2347 11.5947C99.4802 11.5947 99.679 11.776 99.679 11.9999V19.0932C99.679 19.3171 99.4802 19.4984 99.2347 19.4984Z" fill="white"/>
<path d="M96.7653 18.5652C96.5202 18.5652 96.321 18.3839 96.321 18.16V11.9999C96.321 11.7764 96.5198 11.5947 96.7653 11.5947C97.0107 11.5947 97.2095 11.776 97.2095 11.9999V18.16C97.2095 18.3836 97.0107 18.5652 96.7653 18.5652Z" fill="white"/>
<path d="M94.2951 16.5501C94.05 16.5501 93.8508 16.3688 93.8508 16.145V11.9999C93.8508 11.7764 94.0496 11.5947 94.2951 11.5947C94.5405 11.5947 94.7393 11.776 94.7393 11.9999V16.145C94.7393 16.3685 94.5405 16.5501 94.2951 16.5501Z" fill="white"/>
<path d="M91.8256 17.6558C91.5805 17.6558 91.3813 17.4745 91.3813 17.2506V11.9999C91.3813 11.7764 91.5801 11.5947 91.8256 11.5947C92.071 11.5947 92.2698 11.776 92.2698 11.9999V17.2506C92.2698 17.4741 92.071 17.6558 91.8256 17.6558Z" fill="white"/>
<path d="M89.3558 19.2881C89.1108 19.2881 88.9116 19.1067 88.9116 18.8829V12.0004C88.9116 11.7768 89.1104 11.5952 89.3558 11.5952C89.6013 11.5952 89.8001 11.7765 89.8001 12.0004V18.8829C89.8001 19.1064 89.6013 19.2881 89.3558 19.2881Z" fill="white"/>
<path d="M89.3558 21.4852C89.1108 21.4852 88.9116 21.3039 88.9116 21.08V11.9999C88.9116 11.7764 89.1104 11.5947 89.3558 11.5947C89.6013 11.5947 89.8001 11.776 89.8001 11.9999V21.08C89.8001 21.3036 89.6013 21.4852 89.3558 21.4852Z" fill="white"/>
<path d="M86.8861 20.4005C86.641 20.4005 86.4419 20.2192 86.4419 19.9953V11.9999C86.4419 11.7764 86.6407 11.5947 86.8861 11.5947C87.1316 11.5947 87.3303 11.776 87.3303 11.9999V19.9953C87.3303 20.2189 87.1316 20.4005 86.8861 20.4005Z" fill="white"/>
<path d="M84.4161 19.4127C84.1707 19.4127 83.9719 19.2314 83.9719 19.0075V11.9999C83.9719 11.7764 84.1707 11.5947 84.4161 11.5947C84.6616 11.5947 84.8604 11.776 84.8604 11.9999V19.0075C84.8604 19.231 84.6616 19.4127 84.4161 19.4127Z" fill="white"/>
<path d="M81.9464 18.8414C81.7013 18.8414 81.5022 18.6601 81.5022 18.4363V11.9999C81.5022 11.7764 81.701 11.5947 81.9464 11.5947C82.1919 11.5947 82.3906 11.776 82.3906 11.9999V18.4363C82.3906 18.6601 82.1919 18.8414 81.9464 18.8414Z" fill="white"/>
<path d="M79.4767 18.4007C79.2316 18.4007 79.0325 18.2194 79.0325 17.9955V11.9999C79.0325 11.7764 79.2313 11.5947 79.4767 11.5947C79.7221 11.5947 79.9209 11.776 79.9209 11.9999V17.9955C79.9209 18.2191 79.7221 18.4007 79.4767 18.4007Z" fill="white"/>
<path d="M77.0067 19.7566C76.7616 19.7566 76.5625 19.5753 76.5625 19.3514V11.9999C76.5625 11.7764 76.7613 11.5947 77.0067 11.5947C77.2522 11.5947 77.4509 11.776 77.4509 11.9999V19.3514C77.4509 19.5749 77.2522 19.7566 77.0067 19.7566Z" fill="white"/>
<path d="M74.537 21.4852C74.2916 21.4852 74.0928 21.3039 74.0928 21.08V11.9999C74.0928 11.7764 74.2916 11.5947 74.537 11.5947C74.7824 11.5947 74.9812 11.776 74.9812 11.9999V21.08C74.9812 21.3036 74.7824 21.4852 74.537 21.4852Z" fill="white"/>
<path d="M72.0673 22.0615C71.8218 22.0615 71.623 21.8802 71.623 21.6564V11.9999C71.623 11.7764 71.8218 11.5947 72.0673 11.5947C72.3127 11.5947 72.5115 11.776 72.5115 11.9999V21.6564C72.5115 21.8799 72.3127 22.0615 72.0673 22.0615Z" fill="white"/>
<path d="M69.5975 20.8073C69.3525 20.8073 69.1533 20.626 69.1533 20.4021V11.9999C69.1533 11.7764 69.3521 11.5947 69.5975 11.5947C69.843 11.5947 70.0418 11.776 70.0418 11.9999V20.4021C70.0418 20.626 69.843 20.8073 69.5975 20.8073Z" fill="white"/>
<path d="M67.1281 19.7566C66.883 19.7566 66.6838 19.5753 66.6838 19.3514V11.9999C66.6838 11.7764 66.8826 11.5947 67.1281 11.5947C67.3735 11.5947 67.5723 11.776 67.5723 11.9999V19.3514C67.5723 19.5749 67.3735 19.7566 67.1281 19.7566Z" fill="white"/>
<path d="M64.6578 18.0619C64.4128 18.0619 64.2136 17.8806 64.2136 17.6567V11.9999C64.2136 11.7764 64.4124 11.5947 64.6578 11.5947C64.9033 11.5947 65.1021 11.776 65.1021 11.9999V17.6567C65.1021 17.8803 64.9033 18.0619 64.6578 18.0619Z" fill="white"/>
<path d="M62.1884 16.1637C61.9429 16.1637 61.7441 15.9824 61.7441 15.7585V11.9999C61.7441 11.7764 61.9429 11.5947 62.1884 11.5947C62.4338 11.5947 62.6326 11.776 62.6326 11.9999V15.7585C62.6326 15.9824 62.4338 16.1637 62.1884 16.1637Z" fill="white"/>
<path d="M59.7186 14.1658C59.4735 14.1658 59.2744 13.9845 59.2744 13.7606V11.9999C59.2744 11.7764 59.4732 11.5947 59.7186 11.5947C59.9641 11.5947 60.1629 11.776 60.1629 11.9999V13.7606C60.1629 13.9842 59.9641 14.1658 59.7186 14.1658Z" fill="white"/>
<path d="M57.2487 13.4712C57.0036 13.4712 56.8044 13.2899 56.8044 13.066V12.0004C56.8044 11.7768 57.0032 11.5952 57.2487 11.5952C57.4941 11.5952 57.6929 11.7765 57.6929 12.0004V13.066C57.6929 13.2896 57.4941 13.4712 57.2487 13.4712Z" fill="white"/>
<path d="M54.7789 15.0115C54.5339 15.0115 54.3347 14.8302 54.3347 14.6064V12.0004C54.3347 11.7768 54.5335 11.5952 54.7789 11.5952C55.0244 11.5952 55.2232 11.7765 55.2232 12.0004V14.6064C55.2232 14.8299 55.0244 15.0115 54.7789 15.0115Z" fill="white"/>
<path d="M52.3092 18.4007C52.0641 18.4007 51.865 18.2194 51.865 17.9955V11.9999C51.865 11.7764 52.0638 11.5947 52.3092 11.5947C52.5546 11.5947 52.7534 11.776 52.7534 11.9999V17.9955C52.7534 18.2191 52.5546 18.4007 52.3092 18.4007Z" fill="white"/>
<path d="M49.8395 19.4127C49.5944 19.4127 49.3953 19.2314 49.3953 19.0075V11.9999C49.3953 11.7764 49.594 11.5947 49.8395 11.5947C50.0849 11.5947 50.2837 11.776 50.2837 11.9999V19.0075C50.2837 19.231 50.0849 19.4127 49.8395 19.4127Z" fill="white"/>
<path d="M47.3695 20.6382C47.1244 20.6382 46.9253 20.4569 46.9253 20.233V12.0004C46.9253 11.7768 47.1241 11.5952 47.3695 11.5952C47.615 11.5952 47.8137 11.7765 47.8137 12.0004V20.233C47.8137 20.4569 47.615 20.6382 47.3695 20.6382Z" fill="white"/>
<path d="M44.8998 17.2825C44.6547 17.2825 44.4556 17.1012 44.4556 16.8774V12.0004C44.4556 11.7768 44.6544 11.5952 44.8998 11.5952C45.1452 11.5952 45.344 11.7765 45.344 12.0004V16.8774C45.344 17.1009 45.1452 17.2825 44.8998 17.2825Z" fill="white"/>
<path d="M42.4301 16.1637C42.185 16.1637 41.9858 15.9824 41.9858 15.7585V11.9999C41.9858 11.7764 42.1846 11.5947 42.4301 11.5947C42.6755 11.5947 42.8743 11.776 42.8743 11.9999V15.7585C42.8743 15.9824 42.6755 16.1637 42.4301 16.1637Z" fill="white"/>
<path d="M39.9606 13.8927C39.7155 13.8927 39.5164 13.7114 39.5164 13.4875V11.9999C39.5164 11.7764 39.7151 11.5947 39.9606 11.5947C40.206 11.5947 40.4048 11.776 40.4048 11.9999V13.4875C40.4048 13.7111 40.206 13.8927 39.9606 13.8927Z" fill="white"/>
<path d="M37.4904 12.808C37.2449 12.808 37.0461 12.6267 37.0461 12.4028V11.9999C37.0461 11.7764 37.2449 11.5947 37.4904 11.5947C37.7358 11.5947 37.9346 11.776 37.9346 11.9999V12.4028C37.9346 12.6267 37.7358 12.808 37.4904 12.808Z" fill="white"/>
<path d="M35.0209 13.5228C34.7758 13.5228 34.5767 13.3415 34.5767 13.1176V11.9999C34.5767 11.7764 34.7754 11.5947 35.0209 11.5947C35.2663 11.5947 35.4651 11.776 35.4651 11.9999V13.1176C35.4651 13.3412 35.2663 13.5228 35.0209 13.5228Z" fill="white"/>
<path d="M32.5512 14.6407C32.3061 14.6407 32.1069 14.4594 32.1069 14.2355V12.0004C32.1069 11.7768 32.3057 11.5952 32.5512 11.5952C32.7966 11.5952 32.9954 11.7765 32.9954 12.0004V14.2355C32.9954 14.459 32.7966 14.6407 32.5512 14.6407Z" fill="white"/>
<path d="M30.0814 15.5197C29.8363 15.5197 29.6372 15.3384 29.6372 15.1146V11.9999C29.6372 11.7764 29.836 11.5947 30.0814 11.5947C30.3269 11.5947 30.5257 11.776 30.5257 11.9999V15.1146C30.5257 15.3381 30.3269 15.5197 30.0814 15.5197Z" fill="white"/>
<path d="M27.6115 16.2993C27.3664 16.2993 27.1672 16.118 27.1672 15.8941V11.9999C27.1672 11.7764 27.366 11.5947 27.6115 11.5947C27.8569 11.5947 28.0557 11.776 28.0557 11.9999V15.8941C28.0557 16.1176 27.8569 16.2993 27.6115 16.2993Z" fill="white"/>
<path d="M25.1417 16.8756C24.8963 16.8756 24.6975 16.6943 24.6975 16.4704V11.9999C24.6975 11.7764 24.8963 11.5947 25.1417 11.5947C25.3872 11.5947 25.586 11.776 25.586 11.9999V16.4704C25.586 16.6943 25.3872 16.8756 25.1417 16.8756Z" fill="white"/>
<path d="M22.672 15.5197C22.4269 15.5197 22.2278 15.3384 22.2278 15.1146V11.9999C22.2278 11.7764 22.4266 11.5947 22.672 11.5947C22.9174 11.5947 23.1162 11.776 23.1162 11.9999V15.1146C23.1162 15.3381 22.9174 15.5197 22.672 15.5197Z" fill="white"/>
<path d="M20.2023 15.9265C19.9572 15.9265 19.7581 15.7452 19.7581 15.5213V11.9999C19.7581 11.7764 19.9568 11.5947 20.2023 11.5947C20.4477 11.5947 20.6465 11.776 20.6465 11.9999V15.5213C20.6465 15.7449 20.4477 15.9265 20.2023 15.9265Z" fill="white"/>
<path d="M17.7323 14.5367C17.4872 14.5367 17.2881 14.3553 17.2881 14.1315V11.9999C17.2881 11.7764 17.4869 11.5947 17.7323 11.5947C17.9777 11.5947 18.1765 11.776 18.1765 11.9999V14.1315C18.1765 14.355 17.9777 14.5367 17.7323 14.5367Z" fill="white"/>
<path d="M15.2626 13.1473C15.0171 13.1473 14.8184 12.966 14.8184 12.7421V12.0004C14.8184 11.7768 15.0171 11.5952 15.2626 11.5952C15.508 11.5952 15.7068 11.7765 15.7068 12.0004V12.7421C15.7068 12.966 15.508 13.1473 15.2626 13.1473Z" fill="white"/>
<path d="M12.7929 13.8927C12.5478 13.8927 12.3486 13.7114 12.3486 13.4875V11.9999C12.3486 11.7764 12.5474 11.5947 12.7929 11.5947C13.0383 11.5947 13.2371 11.776 13.2371 11.9999V13.4875C13.2371 13.7111 13.0383 13.8927 12.7929 13.8927Z" fill="white"/>
<path d="M10.3234 14.3676C10.0783 14.3676 9.87915 14.1863 9.87915 13.9624V12.0004C9.87915 11.7768 10.0779 11.5952 10.3234 11.5952C10.5688 11.5952 10.7676 11.7765 10.7676 12.0004V13.9624C10.7676 14.1863 10.5688 14.3676 10.3234 14.3676Z" fill="white"/>
<path d="M7.85316 13.8927C7.60807 13.8927 7.40894 13.7114 7.40894 13.4875V11.9999C7.40894 11.7764 7.60772 11.5947 7.85316 11.5947C8.09859 11.5947 8.29738 11.776 8.29738 11.9999V13.4875C8.29738 13.7111 8.09859 13.8927 7.85316 13.8927Z" fill="white"/>
<path d="M5.38367 13.5807C5.13859 13.5807 4.93945 13.3994 4.93945 13.1756V12.0004C4.93945 11.7768 5.13824 11.5952 5.38367 11.5952C5.62911 11.5952 5.8279 11.7765 5.8279 12.0004V13.1756C5.8279 13.3991 5.62911 13.5807 5.38367 13.5807Z" fill="white"/>
<path d="M2.91395 13.1473C2.66886 13.1473 2.46973 12.966 2.46973 12.7421V12.0004C2.46973 11.7768 2.66851 11.5952 2.91395 11.5952C3.15938 11.5952 3.35817 11.7765 3.35817 12.0004V12.7421C3.35817 12.966 3.15938 13.1473 2.91395 13.1473Z" fill="white"/>
<path d="M0.444222 12.808C0.199134 12.808 0 12.6267 0 12.4028V11.9999C0 11.7764 0.198786 11.5947 0.444222 11.5947C0.689658 11.5947 0.888444 11.776 0.888444 11.9999V12.4028C0.888444 12.6267 0.689658 12.808 0.444222 12.808Z" fill="white"/>
<path d="M195.556 12.4049C195.311 12.4049 195.112 12.2236 195.112 11.9997V11.6498C195.112 11.4263 195.31 11.2446 195.556 11.2446C195.801 11.2446 196 11.4259 196 11.6498V11.9997C196 12.2233 195.801 12.4049 195.556 12.4049Z" fill="white"/>
<path d="M193.086 12.4053C192.841 12.4053 192.642 12.2239 192.642 12.0001V11.0824C192.642 10.8589 192.84 10.6772 193.086 10.6772C193.331 10.6772 193.53 10.8586 193.53 11.0824V12.0001C193.53 12.2236 193.331 12.4053 193.086 12.4053Z" fill="white"/>
<path d="M190.616 12.4049C190.371 12.4049 190.172 12.2236 190.172 11.9997V10.5448C190.172 10.3213 190.371 10.1396 190.616 10.1396C190.862 10.1396 191.06 10.321 191.06 10.5448V11.9997C191.06 12.2233 190.862 12.4049 190.616 12.4049Z" fill="white"/>
<path d="M188.146 12.4049C187.901 12.4049 187.702 12.2236 187.702 11.9997V9.55312C187.702 9.32958 187.901 9.14795 188.146 9.14795C188.392 9.14795 188.591 9.32926 188.591 9.55312V11.9997C188.591 12.2232 188.392 12.4049 188.146 12.4049Z" fill="white"/>
<path d="M185.677 12.4051C185.432 12.4051 185.232 12.2237 185.232 11.9999V10.7768C185.232 10.5532 185.431 10.3716 185.677 10.3716C185.922 10.3716 186.121 10.5529 186.121 10.7768V11.9999C186.121 12.2234 185.922 12.4051 185.677 12.4051Z" fill="white"/>
<path d="M183.207 12.4051C182.962 12.4051 182.762 12.2238 182.762 11.9999V11.516C182.762 11.2925 182.961 11.1108 183.207 11.1108C183.452 11.1108 183.651 11.2922 183.651 11.516V11.9999C183.651 12.2235 183.452 12.4051 183.207 12.4051Z" fill="white"/>
<path d="M180.737 12.4049C180.492 12.4049 180.293 12.2236 180.293 11.9997V10.2143C180.293 9.99071 180.492 9.80908 180.737 9.80908C180.982 9.80908 181.181 9.99039 181.181 10.2143V11.9997C181.181 12.2233 180.982 12.4049 180.737 12.4049Z" fill="white"/>
<path d="M178.267 12.4052C178.022 12.4052 177.823 12.2239 177.823 12V9.42958C177.823 9.20604 178.022 9.02441 178.267 9.02441C178.513 9.02441 178.711 9.20572 178.711 9.42958V12C178.711 12.2235 178.513 12.4052 178.267 12.4052Z" fill="white"/>
<path d="M175.798 12.4052C175.553 12.4052 175.354 12.2239 175.354 12.0001V8.08681C175.354 7.86327 175.552 7.68164 175.798 7.68164C176.043 7.68164 176.242 7.86295 176.242 8.08681V12.0001C176.242 12.2236 176.043 12.4052 175.798 12.4052Z" fill="white"/>
<path d="M173.328 12.405C173.082 12.405 172.883 12.2237 172.883 11.9998V7.05361C172.883 6.82975 173.082 6.64844 173.328 6.64844C173.573 6.64844 173.772 6.82975 173.772 7.05361V11.9998C173.772 12.2233 173.573 12.405 173.328 12.405Z" fill="white"/>
<path d="M170.858 12.4052C170.613 12.4052 170.414 12.2239 170.414 12.0001V7.53652C170.414 7.31298 170.613 7.13135 170.858 7.13135C171.103 7.13135 171.302 7.31266 171.302 7.53652V12.0001C171.302 12.2236 171.103 12.4052 170.858 12.4052Z" fill="white"/>
<path d="M168.388 12.405C168.143 12.405 167.944 12.2237 167.944 11.9998V6.34902C167.944 6.12548 168.143 5.94385 168.388 5.94385C168.634 5.94385 168.833 6.12516 168.833 6.34902V11.9998C168.833 12.2234 168.634 12.405 168.388 12.405Z" fill="white"/>
<path d="M165.919 12.4052C165.674 12.4052 165.474 12.2239 165.474 12V5.3998C165.474 5.17626 165.673 4.99463 165.919 4.99463C166.164 4.99463 166.363 5.17594 166.363 5.3998V12C166.363 12.2236 166.164 12.4052 165.919 12.4052Z" fill="white"/>
<path d="M163.449 12.405C163.204 12.405 163.004 12.2237 163.004 11.9998V5.85146C163.004 5.62792 163.203 5.44629 163.449 5.44629C163.694 5.44629 163.893 5.6276 163.893 5.85146V11.9998C163.893 12.2234 163.694 12.405 163.449 12.405Z" fill="white"/>
<path d="M160.979 12.4051C160.734 12.4051 160.535 12.2237 160.535 11.9999V6.82412C160.535 6.60026 160.733 6.41895 160.979 6.41895C161.224 6.41895 161.423 6.60026 161.423 6.82412V11.9999C161.423 12.2234 161.224 12.4051 160.979 12.4051Z" fill="white"/>
<path d="M158.509 12.4051C158.264 12.4051 158.065 12.2238 158.065 11.9999V5.22158C158.065 4.99803 158.264 4.81641 158.509 4.81641C158.755 4.81641 158.953 4.99772 158.953 5.22158V11.9999C158.953 12.2235 158.755 12.4051 158.509 12.4051Z" fill="white"/>
<path d="M156.039 12.405C155.794 12.405 155.595 12.2237 155.595 11.9998V5.85146C155.595 5.62792 155.794 5.44629 156.039 5.44629C156.285 5.44629 156.484 5.6276 156.484 5.85146V11.9998C156.484 12.2234 156.285 12.405 156.039 12.405Z" fill="white"/>
<path d="M153.569 12.4052C153.324 12.4052 153.125 12.2239 153.125 12.0001V8.61074C153.125 8.38688 153.324 8.20557 153.569 8.20557C153.815 8.20557 154.014 8.38688 154.014 8.61074V12.0001C154.014 12.2236 153.815 12.4052 153.569 12.4052Z" fill="white"/>
<path d="M151.1 12.4052C150.855 12.4052 150.656 12.2238 150.656 12V10.0434C150.656 9.81981 150.854 9.63818 151.1 9.63818C151.345 9.63818 151.544 9.81949 151.544 10.0434V12C151.544 12.2235 151.345 12.4052 151.1 12.4052Z" fill="white"/>
<path d="M148.63 12.4049C148.385 12.4049 148.186 12.2236 148.186 11.9997V11.1068C148.186 10.8833 148.385 10.7017 148.63 10.7017C148.876 10.7017 149.074 10.883 149.074 11.1068V11.9997C149.074 12.2233 148.876 12.4049 148.63 12.4049Z" fill="white"/>
<path d="M146.161 12.4052C145.915 12.4052 145.716 12.2239 145.716 12.0001V11.5536C145.716 11.3297 145.915 11.1484 146.161 11.1484C146.406 11.1484 146.605 11.3297 146.605 11.5536V12.0001C146.605 12.2236 146.406 12.4052 146.161 12.4052Z" fill="white"/>
<path d="M143.69 12.4049C143.445 12.4049 143.246 12.2236 143.246 11.9997V11.6498C143.246 11.4263 143.445 11.2446 143.69 11.2446C143.936 11.2446 144.135 11.4259 144.135 11.6498V11.9997C144.135 12.2233 143.936 12.4049 143.69 12.4049Z" fill="white"/>
<path d="M141.221 12.4049C140.975 12.4049 140.777 12.2236 140.777 11.9997V11.1068C140.777 10.8833 140.975 10.7017 141.221 10.7017C141.466 10.7017 141.665 10.883 141.665 11.1068V11.9997C141.665 12.2233 141.466 12.4049 141.221 12.4049Z" fill="white"/>
<path d="M138.751 12.4049C138.506 12.4049 138.307 12.2236 138.307 11.9997V10.3051C138.307 10.0815 138.506 9.8999 138.751 9.8999C138.997 9.8999 139.195 10.0812 139.195 10.3051V11.9997C139.195 12.2233 138.997 12.4049 138.751 12.4049Z" fill="white"/>
<path d="M136.281 12.4051C136.036 12.4051 135.837 12.2238 135.837 11.9999V9.41201C135.837 9.18846 136.036 9.00684 136.281 9.00684C136.527 9.00684 136.726 9.18815 136.726 9.41201V11.9999C136.726 12.2234 136.527 12.4051 136.281 12.4051Z" fill="white"/>
<path d="M133.811 12.4048C133.566 12.4048 133.367 12.2235 133.367 11.9996V8.36708C133.367 8.14322 133.566 7.96191 133.811 7.96191C134.057 7.96191 134.256 8.14322 134.256 8.36708V11.9996C134.256 12.2232 134.057 12.4048 133.811 12.4048Z" fill="white"/>
<path d="M131.342 12.4049C131.096 12.4049 130.897 12.2236 130.897 11.9997V8.92568C130.897 8.70214 131.096 8.52051 131.342 8.52051C131.587 8.52051 131.786 8.70182 131.786 8.92568V11.9997C131.786 12.2232 131.587 12.4049 131.342 12.4049Z" fill="white"/>
<path d="M128.872 12.4052C128.627 12.4052 128.428 12.2239 128.428 12V9.52675C128.428 9.30321 128.627 9.12158 128.872 9.12158C129.117 9.12158 129.316 9.30289 129.316 9.52675V12C129.316 12.2235 129.117 12.4052 128.872 12.4052Z" fill="white"/>
<path d="M126.402 12.4049C126.157 12.4049 125.958 12.2236 125.958 11.9998V10.1835C125.958 9.95995 126.157 9.77832 126.402 9.77832C126.648 9.77832 126.846 9.95963 126.846 10.1835V11.9998C126.846 12.2233 126.648 12.4049 126.402 12.4049Z" fill="white"/>
<path d="M123.932 12.4048C123.687 12.4048 123.488 12.2235 123.488 11.9996V9.17421C123.488 8.95035 123.687 8.76904 123.932 8.76904C124.178 8.76904 124.376 8.95035 124.376 9.17421V11.9996C124.376 12.2232 124.178 12.4048 123.932 12.4048Z" fill="white"/>
<path d="M121.463 12.4048C121.217 12.4048 121.018 12.2235 121.018 11.9996V8.36708C121.018 8.14322 121.217 7.96191 121.463 7.96191C121.708 7.96191 121.907 8.14322 121.907 8.36708V11.9996C121.907 12.2232 121.708 12.4048 121.463 12.4048Z" fill="white"/>
<path d="M118.993 12.405C118.748 12.405 118.549 12.2236 118.549 11.9998V7.29872C118.549 7.07518 118.748 6.89355 118.993 6.89355C119.238 6.89355 119.437 7.07487 119.437 7.29872V11.9998C119.437 12.2233 119.238 12.405 118.993 12.405Z" fill="white"/>
<path d="M116.523 12.4049C116.278 12.4049 116.079 12.2236 116.079 11.9998V5.60976C116.079 5.38622 116.278 5.20459 116.523 5.20459C116.769 5.20459 116.968 5.3859 116.968 5.60976V11.9998C116.968 12.2233 116.769 12.4049 116.523 12.4049Z" fill="white"/>
<path d="M114.053 12.4051C113.808 12.4051 113.609 12.2237 113.609 11.9999V6.82412C113.609 6.60026 113.808 6.41895 114.053 6.41895C114.299 6.41895 114.498 6.60026 114.498 6.82412V11.9999C114.498 12.2234 114.299 12.4051 114.053 12.4051Z" fill="white"/>
<path d="M111.584 12.4052C111.339 12.4052 111.139 12.2239 111.139 12.0001V4.63808C111.139 4.41422 111.338 4.23291 111.584 4.23291C111.829 4.23291 112.028 4.41422 112.028 4.63808V12.0001C112.028 12.2236 111.829 12.4052 111.584 12.4052Z" fill="white"/>
<path d="M109.114 12.4048C108.868 12.4048 108.67 12.2235 108.67 11.9996V3.4955C108.67 3.27196 108.868 3.09033 109.114 3.09033C109.359 3.09033 109.558 3.27164 109.558 3.4955V11.9996C109.558 12.2232 109.359 12.4048 109.114 12.4048Z" fill="white"/>
<path d="M106.644 12.4049C106.399 12.4049 106.2 12.2236 106.2 11.9997V3.22695C106.2 3.00309 106.399 2.82178 106.644 2.82178C106.89 2.82178 107.088 3.00309 107.088 3.22695V12C107.088 12.2236 106.89 12.4052 106.644 12.4052V12.4049Z" fill="white"/>
<path d="M104.174 12.405C103.929 12.405 103.73 12.2237 103.73 11.9998V0.405171C103.73 0.181628 103.929 0 104.174 0C104.42 0 104.618 0.181311 104.618 0.405171V12.0002C104.618 12.2237 104.42 12.4053 104.174 12.4053V12.405Z" fill="white"/>
<path d="M101.704 12.4049C101.459 12.4049 101.26 12.2236 101.26 11.9998V1.54726C101.26 1.32372 101.459 1.14209 101.704 1.14209C101.95 1.14209 102.149 1.3234 102.149 1.54726V12.0001C102.149 12.2236 101.95 12.4053 101.704 12.4053V12.4049Z" fill="white"/>
<path d="M99.2347 12.4051C98.9897 12.4051 98.7905 12.2238 98.7905 12V4.90664C98.7905 4.68309 98.9893 4.50146 99.2347 4.50146C99.4802 4.50146 99.679 4.68278 99.679 4.90664V12C99.679 12.2235 99.4802 12.4051 99.2347 12.4051Z" fill="white"/>
<path d="M96.7653 12.405C96.5202 12.405 96.321 12.2237 96.321 11.9999V5.83974C96.321 5.61588 96.5198 5.43457 96.7653 5.43457C97.0107 5.43457 97.2095 5.61588 97.2095 5.83974V11.9999C97.2095 12.2234 97.0107 12.405 96.7653 12.405Z" fill="white"/>
<path d="M94.2951 12.4051C94.05 12.4051 93.8508 12.2238 93.8508 11.9999V7.85488C93.8508 7.63134 94.0496 7.44971 94.2951 7.44971C94.5405 7.44971 94.7393 7.63102 94.7393 7.85488V11.9999C94.7393 12.2235 94.5405 12.4051 94.2951 12.4051Z" fill="white"/>
<path d="M91.8256 12.4048C91.5805 12.4048 91.3813 12.2235 91.3813 11.9996V6.74892C91.3813 6.52506 91.5801 6.34375 91.8256 6.34375C92.071 6.34375 92.2698 6.52506 92.2698 6.74892V11.9996C92.2698 12.2232 92.071 12.4048 91.8256 12.4048Z" fill="white"/>
<path d="M89.3558 12.4052C89.1108 12.4052 88.9116 12.2239 88.9116 12.0001V5.11757C88.9116 4.89403 89.1104 4.7124 89.3558 4.7124C89.6013 4.7124 89.8001 4.89371 89.8001 5.11757V12.0001C89.8001 12.2236 89.6013 12.4052 89.3558 12.4052Z" fill="white"/>
<path d="M86.8861 12.4051C86.641 12.4051 86.4419 12.2238 86.4419 11.9999V4.00478C86.4419 3.78124 86.6407 3.59961 86.8861 3.59961C87.1316 3.59961 87.3303 3.78092 87.3303 4.00478V12.0002C87.3303 12.2238 87.1316 12.4054 86.8861 12.4054V12.4051Z" fill="white"/>
<path d="M84.4161 12.4049C84.1707 12.4049 83.9719 12.2236 83.9719 11.9997V4.99208C83.9719 4.76854 84.1707 4.58691 84.4161 4.58691C84.6616 4.58691 84.8604 4.76822 84.8604 4.99208V11.9997C84.8604 12.2232 84.6616 12.4049 84.4161 12.4049Z" fill="white"/>
<path d="M81.9464 12.4049C81.7013 12.4049 81.5022 12.2236 81.5022 11.9997V5.56337C81.5022 5.33983 81.701 5.1582 81.9464 5.1582C82.1919 5.1582 82.3906 5.33951 82.3906 5.56337V11.9997C82.3906 12.2233 82.1919 12.4049 81.9464 12.4049Z" fill="white"/>
<path d="M79.4767 12.4051C79.2316 12.4051 79.0325 12.2238 79.0325 11.9999V6.00429C79.0325 5.78043 79.2313 5.59912 79.4767 5.59912C79.7221 5.59912 79.9209 5.78043 79.9209 6.00429V11.9999C79.9209 12.2235 79.7221 12.4051 79.4767 12.4051Z" fill="white"/>
<path d="M77.0067 12.405C76.7616 12.405 76.5625 12.2237 76.5625 11.9998V4.64833C76.5625 4.42479 76.7613 4.24316 77.0067 4.24316C77.2522 4.24316 77.4509 4.42447 77.4509 4.64833V11.9998C77.4509 12.2234 77.2522 12.405 77.0067 12.405Z" fill="white"/>
<path d="M74.537 12.4048C74.2916 12.4048 74.0928 12.2235 74.0928 11.9996V2.91982C74.0928 2.69628 74.2916 2.51465 74.537 2.51465C74.7824 2.51465 74.9812 2.69596 74.9812 2.91982V12C74.9812 12.2235 74.7824 12.4051 74.537 12.4051V12.4048Z" fill="white"/>
<path d="M72.0673 12.405C71.8218 12.405 71.623 12.2236 71.623 11.9998V2.34365C71.623 2.1201 71.8218 1.93848 72.0673 1.93848C72.3127 1.93848 72.5115 2.11979 72.5115 2.34365V12.0001C72.5115 12.2236 72.3127 12.4053 72.0673 12.4053V12.405Z" fill="white"/>
<path d="M69.5975 12.4051C69.3525 12.4051 69.1533 12.2238 69.1533 11.9999V3.59804C69.1533 3.3745 69.3521 3.19287 69.5975 3.19287C69.843 3.19287 70.0418 3.37418 70.0418 3.59804V12.0002C70.0418 12.2238 69.843 12.4054 69.5975 12.4054V12.4051Z" fill="white"/>
<path d="M67.1281 12.405C66.883 12.405 66.6838 12.2237 66.6838 11.9998V4.64833C66.6838 4.42479 66.8826 4.24316 67.1281 4.24316C67.3735 4.24316 67.5723 4.42447 67.5723 4.64833V11.9998C67.5723 12.2234 67.3735 12.405 67.1281 12.405Z" fill="white"/>
<path d="M64.6578 12.4052C64.4128 12.4052 64.2136 12.2238 64.2136 12V6.34316C64.2136 6.11962 64.4124 5.93799 64.6578 5.93799C64.9033 5.93799 65.1021 6.1193 65.1021 6.34316V12C65.1021 12.2235 64.9033 12.4052 64.6578 12.4052Z" fill="white"/>
<path d="M62.1884 12.4049C61.9429 12.4049 61.7441 12.2236 61.7441 11.9997V8.24111C61.7441 8.01757 61.9429 7.83594 62.1884 7.83594C62.4338 7.83594 62.6326 8.01725 62.6326 8.24111V11.9997C62.6326 12.2233 62.4338 12.4049 62.1884 12.4049Z" fill="white"/>
<path d="M59.7186 12.405C59.4735 12.405 59.2744 12.2237 59.2744 11.9999V10.2392C59.2744 10.0156 59.4732 9.83398 59.7186 9.83398C59.9641 9.83398 60.1629 10.0153 60.1629 10.2392V11.9999C60.1629 12.2234 59.9641 12.405 59.7186 12.405Z" fill="white"/>
<path d="M57.2487 12.4048C57.0036 12.4048 56.8044 12.2235 56.8044 11.9996V10.934C56.8044 10.7104 57.0032 10.5288 57.2487 10.5288C57.4941 10.5288 57.6929 10.7101 57.6929 10.934V11.9996C57.6929 12.2232 57.4941 12.4048 57.2487 12.4048Z" fill="white"/>
<path d="M54.7789 12.4051C54.5339 12.4051 54.3347 12.2238 54.3347 11.9999V9.39394C54.3347 9.17008 54.5335 8.98877 54.7789 8.98877C55.0244 8.98877 55.2232 9.17008 55.2232 9.39394V11.9999C55.2232 12.2235 55.0244 12.4051 54.7789 12.4051Z" fill="white"/>
<path d="M52.3092 12.4051C52.0641 12.4051 51.865 12.2238 51.865 11.9999V6.00429C51.865 5.78043 52.0638 5.59912 52.3092 5.59912C52.5546 5.59912 52.7534 5.78043 52.7534 6.00429V11.9999C52.7534 12.2235 52.5546 12.4051 52.3092 12.4051Z" fill="white"/>
<path d="M49.8395 12.4049C49.5944 12.4049 49.3953 12.2236 49.3953 11.9997V4.99208C49.3953 4.76854 49.594 4.58691 49.8395 4.58691C50.0849 4.58691 50.2837 4.76822 50.2837 4.99208V11.9997C50.2837 12.2232 50.0849 12.4049 49.8395 12.4049Z" fill="white"/>
<path d="M47.3695 12.4048C47.1244 12.4048 46.9253 12.2235 46.9253 11.9996V3.76699C46.9253 3.54344 47.1241 3.36182 47.3695 3.36182C47.615 3.36182 47.8137 3.54313 47.8137 3.76699V11.9996C47.8137 12.2232 47.615 12.4048 47.3695 12.4048Z" fill="white"/>
<path d="M44.8998 12.4051C44.6547 12.4051 44.4556 12.2238 44.4556 11.9999V7.12294C44.4556 6.8994 44.6544 6.71777 44.8998 6.71777C45.1452 6.71777 45.344 6.89908 45.344 7.12294V11.9999C45.344 12.2235 45.1452 12.4051 44.8998 12.4051Z" fill="white"/>
<path d="M42.4301 12.4049C42.185 12.4049 41.9858 12.2236 41.9858 11.9997V8.24111C41.9858 8.01757 42.1846 7.83594 42.4301 7.83594C42.6755 7.83594 42.8743 8.01725 42.8743 8.24111V11.9997C42.8743 12.2233 42.6755 12.4049 42.4301 12.4049Z" fill="white"/>
<path d="M39.9606 12.4049C39.7155 12.4049 39.5164 12.2236 39.5164 11.9997V10.5121C39.5164 10.2886 39.7151 10.1069 39.9606 10.1069C40.206 10.1069 40.4048 10.2882 40.4048 10.5121V11.9997C40.4048 12.2233 40.206 12.4049 39.9606 12.4049Z" fill="white"/>
<path d="M37.4904 12.4052C37.2449 12.4052 37.0461 12.2239 37.0461 12V11.5971C37.0461 11.3735 37.2449 11.1919 37.4904 11.1919C37.7358 11.1919 37.9346 11.3732 37.9346 11.5971V12C37.9346 12.2236 37.7358 12.4052 37.4904 12.4052Z" fill="white"/>
<path d="M35.0209 12.4051C34.7758 12.4051 34.5767 12.2238 34.5767 11.9999V10.8822C34.5767 10.6587 34.7754 10.4771 35.0209 10.4771C35.2663 10.4771 35.4651 10.6584 35.4651 10.8822V11.9999C35.4651 12.2235 35.2663 12.4051 35.0209 12.4051Z" fill="white"/>
<path d="M32.5512 12.4048C32.3061 12.4048 32.1069 12.2235 32.1069 11.9997V9.76454C32.1069 9.541 32.3057 9.35938 32.5512 9.35938C32.7966 9.35938 32.9954 9.54068 32.9954 9.76454V11.9997C32.9954 12.2232 32.7966 12.4048 32.5512 12.4048Z" fill="white"/>
<path d="M30.0814 12.405C29.8363 12.405 29.6372 12.2237 29.6372 11.9998V8.88515C29.6372 8.66129 29.836 8.47998 30.0814 8.47998C30.3269 8.47998 30.5257 8.66129 30.5257 8.88515V11.9998C30.5257 12.2234 30.3269 12.405 30.0814 12.405Z" fill="white"/>
<path d="M27.6115 12.4052C27.3664 12.4052 27.1672 12.2239 27.1672 12.0001V8.10585C27.1672 7.88231 27.366 7.70068 27.6115 7.70068C27.8569 7.70068 28.0557 7.88199 28.0557 8.10585V12.0001C28.0557 12.2236 27.8569 12.4052 27.6115 12.4052Z" fill="white"/>
<path d="M25.1417 12.4051C24.8963 12.4051 24.6975 12.2238 24.6975 11.9999V7.52968C24.6975 7.30614 24.8963 7.12451 25.1417 7.12451C25.3872 7.12451 25.586 7.30582 25.586 7.52968V11.9999C25.586 12.2234 25.3872 12.4051 25.1417 12.4051Z" fill="white"/>
<path d="M22.672 12.405C22.4269 12.405 22.2278 12.2237 22.2278 11.9998V8.88515C22.2278 8.66129 22.4266 8.47998 22.672 8.47998C22.9174 8.47998 23.1162 8.66129 23.1162 8.88515V11.9998C23.1162 12.2234 22.9174 12.405 22.672 12.405Z" fill="white"/>
<path d="M20.2023 12.405C19.9572 12.405 19.7581 12.2237 19.7581 11.9998V8.47841C19.7581 8.25487 19.9568 8.07324 20.2023 8.07324C20.4477 8.07324 20.6465 8.25455 20.6465 8.47841V11.9998C20.6465 12.2234 20.4477 12.405 20.2023 12.405Z" fill="white"/>
<path d="M17.7323 12.4048C17.4872 12.4048 17.2881 12.2235 17.2881 11.9997V9.86806C17.2881 9.64452 17.4869 9.46289 17.7323 9.46289C17.9777 9.46289 18.1765 9.6442 18.1765 9.86806V11.9997C18.1765 12.2232 17.9777 12.4048 17.7323 12.4048Z" fill="white"/>
<path d="M15.2626 12.4051C15.0171 12.4051 14.8184 12.2238 14.8184 12V11.2582C14.8184 11.0347 15.0171 10.853 15.2626 10.853C15.508 10.853 15.7068 11.0343 15.7068 11.2582V12C15.7068 12.2235 15.508 12.4051 15.2626 12.4051Z" fill="white"/>
<path d="M12.7929 12.4049C12.5478 12.4049 12.3486 12.2236 12.3486 11.9997V10.5121C12.3486 10.2886 12.5474 10.1069 12.7929 10.1069C13.0383 10.1069 13.2371 10.2882 13.2371 10.5121V11.9997C13.2371 12.2233 13.0383 12.4049 12.7929 12.4049Z" fill="white"/>
<path d="M10.3234 12.4052C10.0783 12.4052 9.87915 12.2239 9.87915 12V10.038C9.87915 9.81444 10.0779 9.63281 10.3234 9.63281C10.5688 9.63281 10.7676 9.81412 10.7676 10.038V12C10.7676 12.2236 10.5688 12.4052 10.3234 12.4052Z" fill="white"/>
<path d="M7.85316 12.4049C7.60807 12.4049 7.40894 12.2236 7.40894 11.9997V10.5121C7.40894 10.2886 7.60772 10.1069 7.85316 10.1069C8.09859 10.1069 8.29738 10.2882 8.29738 10.5121V11.9997C8.29738 12.2233 8.09859 12.4049 7.85316 12.4049Z" fill="white"/>
<path d="M5.38367 12.405C5.13859 12.405 4.93945 12.2236 4.93945 11.9998V10.8246C4.93945 10.6011 5.13824 10.4194 5.38367 10.4194C5.62911 10.4194 5.8279 10.6007 5.8279 10.8246V11.9998C5.8279 12.2233 5.62911 12.405 5.38367 12.405Z" fill="white"/>
<path d="M2.91395 12.4051C2.66886 12.4051 2.46973 12.2238 2.46973 12V11.2582C2.46973 11.0347 2.66851 10.853 2.91395 10.853C3.15938 10.853 3.35817 11.0343 3.35817 11.2582V12C3.35817 12.2235 3.15938 12.4051 2.91395 12.4051Z" fill="white"/>
<path d="M0.444222 12.4052C0.199134 12.4052 0 12.2239 0 12V11.5971C0 11.3735 0.198786 11.1919 0.444222 11.1919C0.689658 11.1919 0.888444 11.3732 0.888444 11.5971V12C0.888444 12.2236 0.689658 12.4052 0.444222 12.4052Z" fill="white"/>
</svg>
