<svg width="20" height="25" viewBox="0 0 20 25" fill="none" xmlns="http://www.w3.org/2000/svg">
<path fill-rule="evenodd" clip-rule="evenodd" d="M10.0005 0.5C11.6508 0.5 13.1718 1.16154 14.2722 2.23244C15.3726 3.30334 16.0523 4.7836 16.0523 6.42154C16.0523 8.05948 15.3726 9.53973 14.2722 10.5793C13.7867 11.0832 13.204 11.4925 12.557 11.776C14.2722 12.2167 15.8254 13.0986 17.0551 14.2959C18.8674 16.0596 20 18.5163 20 21.1933V22.3587C20 22.9257 19.7409 23.4609 19.353 23.8703C18.9323 24.2483 18.3819 24.5 17.7992 24.5H2.20024C1.5854 24.5 1.03495 24.2483 0.647035 23.8703C0.226409 23.4609 0 22.9252 0 22.3587V21.1933C0 18.5163 1.10038 16.0596 2.91271 14.2959C4.14239 13.0991 5.69611 12.2172 7.41133 11.776C6.76377 11.4925 6.18164 11.0832 5.69611 10.5793C4.59573 9.53973 3.91597 8.05948 3.91597 6.42154C3.91597 4.7836 4.59573 3.30334 5.69611 2.23244C6.79648 1.16154 8.3175 0.5 10.0005 0.5Z" fill="white"/>
</svg>
