<svg width="25" height="25" viewBox="0 0 25 25" fill="none" xmlns="http://www.w3.org/2000/svg">
<path fill-rule="evenodd" clip-rule="evenodd" d="M12.5 0C15.9278 0 19.051 1.40736 21.3385 3.65629C23.5907 5.94059 25 9.05941 25 12.4823C25 15.9052 23.5907 19.0594 21.3385 21.3437C19.051 23.5926 15.9278 25 12.5 25C9.07224 25 5.9136 23.5926 3.66147 21.3437C1.38102 19.0594 0 15.9406 0 12.4823C0 9.02405 1.38102 5.94059 3.66147 3.65629C5.9136 1.40736 9.03683 0 12.5 0ZM7.83286 18.9958C7.33003 19.5332 6.48725 19.5332 5.98442 18.9958C5.44618 18.4936 5.44618 17.6521 5.98442 17.1499L10.6232 12.4823L5.98442 7.85007C5.44618 7.34795 5.44618 6.50636 5.98442 6.00424C6.48725 5.46676 7.33003 5.46676 7.83286 6.00424L12.5071 10.6365L17.1459 6.00424C17.6487 5.46676 18.4915 5.46676 18.9943 6.00424C19.5326 6.50636 19.5326 7.34795 18.9943 7.85007L14.3555 12.4823L18.9943 17.1499C19.5326 17.6521 19.5326 18.4936 18.9943 18.9958C18.4915 19.5332 17.6487 19.5332 17.1459 18.9958L12.5071 14.3635L7.83286 18.9958Z" fill="white"/>
</svg>
