<svg width="20" height="21" viewBox="0 0 20 21" fill="none" xmlns="http://www.w3.org/2000/svg">
<path fill-rule="evenodd" clip-rule="evenodd" d="M2.84498 10.9636H0.462543C0.20803 10.9636 0 10.7337 0 10.4524C0 10.2734 0.0693433 10.1201 0.161928 10.0434L9.62195 0.634245C9.80711 0.455252 10.0845 0.455252 10.2697 0.634245L19.8455 10.043C20.0307 10.2477 20.0535 10.58 19.8916 10.7842C19.799 10.9118 19.6603 10.9632 19.5217 10.9632H17.1392V19.9887C17.1392 20.27 16.9312 20.5 16.6767 20.5H12.6521C12.3976 20.5 12.1663 20.27 12.1663 19.9887V14.1851H7.60947V19.9887C7.60947 20.27 7.40144 20.5 7.14693 20.5H3.33038C3.05263 20.5 2.8446 20.27 2.8446 19.9887V10.9632L2.84498 10.9636Z" fill="white"/>
</svg>
