<svg width="20" height="21" viewBox="0 0 20 21" fill="none" xmlns="http://www.w3.org/2000/svg">
<path d="M0.00043366 10.5C0.00043366 4.977 4.47734 0.5 10.0002 0.5C15.5231 0.5 20 4.977 20 10.5C20 16.023 15.5231 20.5 10.0002 20.5C8.27526 20.5 6.65129 20.063 5.23382 19.293L1.11541 20.464C0.455924 20.6515 -0.153063 20.042 0.0344328 19.383L1.20541 15.264C0.411773 13.8017 -0.00251916 12.1638 0.00043366 10.5ZM6.0003 8.625C6.0003 8.97 6.2803 9.25 6.62529 9.25H13.3751C13.4572 9.25 13.5385 9.23383 13.6143 9.20243C13.6901 9.17102 13.759 9.12498 13.8171 9.06694C13.8751 9.00891 13.9211 8.94001 13.9526 8.86418C13.984 8.78835 14.0001 8.70708 14.0001 8.625C14.0001 8.54292 13.984 8.46165 13.9526 8.38582C13.9211 8.31 13.8751 8.24109 13.8171 8.18306C13.759 8.12502 13.6901 8.07898 13.6143 8.04758C13.5385 8.01617 13.4572 8 13.3751 8H6.62529C6.2803 8 6.0003 8.28 6.0003 8.625ZM6.62529 11.75C6.45953 11.75 6.30057 11.8158 6.18336 11.9331C6.06615 12.0503 6.0003 12.2092 6.0003 12.375C6.0003 12.5408 6.06615 12.6997 6.18336 12.8169C6.30057 12.9342 6.45953 13 6.62529 13H11.3752C11.5409 13 11.6999 12.9342 11.8171 12.8169C11.9343 12.6997 12.0002 12.5408 12.0002 12.375C12.0002 12.2092 11.9343 12.0503 11.8171 11.9331C11.6999 11.8158 11.5409 11.75 11.3752 11.75H6.62529Z" fill="white"/>
</svg>
