<svg width="31" height="27" viewBox="0 0 31 27" fill="none" xmlns="http://www.w3.org/2000/svg">
<path d="M11 1.5V4.02632Z" fill="white"/>
<path d="M11 1.5V4.02632" stroke="white" stroke-width="2" stroke-linecap="round" stroke-linejoin="round"/>
<path d="M11 4.02625C6.8625 4.02625 3.5 7.42414 3.5 11.6052V19.1841C2.25 19.1841 1 20.4473 1 21.7105H11M11 4.02625C15.1375 4.02625 18.5 7.42414 18.5 11.6052V19.1841C19.75 19.1841 21 20.4473 21 21.7105H11" fill="white" stroke="white" stroke-width="2" stroke-linecap="round" stroke-linejoin="round"/>
<path d="M8.5 22.9738C8.5 24.3632 9.625 25.5001 11 25.5001C12.375 25.5001 13.5 24.3632 13.5 22.9738" fill="white"/>
<path d="M8.5 22.9738C8.5 24.3632 9.625 25.5001 11 25.5001C12.375 25.5001 13.5 24.3632 13.5 22.9738" stroke="white" stroke-width="2" stroke-linecap="round" stroke-linejoin="round"/>
</svg>
