<svg width="20" height="25" viewBox="0 0 20 25" fill="none" xmlns="http://www.w3.org/2000/svg">
<path d="M5.62012 12.1367H17.0322V5.86914H5.62012V12.1367ZM0.923828 22.084C0.923645 22.0778 0.923205 22.0687 0.922852 22.0566C0.922125 22.0319 0.921306 21.9943 0.919922 21.9463C0.917154 21.8503 0.913167 21.7092 0.908203 21.5293C0.898264 21.1691 0.884436 20.6532 0.869141 20.0303C0.838536 18.7838 0.801808 17.1096 0.777344 15.3994C0.752864 13.6881 0.740541 11.9452 0.758789 10.5586C0.767924 9.86467 0.784645 9.26725 0.810547 8.81055C0.823527 8.58173 0.838151 8.39526 0.854492 8.25391L0.886719 8.04492C0.888685 8.0402 0.904527 8.00306 0.951172 7.92578C0.999466 7.84578 1.0678 7.74404 1.1582 7.62207C1.33898 7.3782 1.58738 7.07855 1.88867 6.73828C2.49058 6.05855 3.27719 5.24971 4.09473 4.46191C4.91226 3.67413 5.7504 2.91679 6.45508 2.33887C6.80803 2.0494 7.1191 1.81127 7.37207 1.63867C7.49855 1.55239 7.60418 1.48727 7.6875 1.44141C7.72866 1.41875 7.7611 1.40232 7.78516 1.3916L7.81641 1.37891C7.88568 1.35902 8.08301 1.32926 8.44141 1.30469C8.77899 1.28156 9.20575 1.26607 9.69336 1.25781C10.6674 1.24133 11.8574 1.25219 13.0156 1.27441C14.1726 1.29661 15.2917 1.33061 16.1221 1.3584C16.537 1.37228 16.8795 1.38454 17.1182 1.39355C17.2375 1.39806 17.3311 1.40179 17.3945 1.4043C17.4262 1.40555 17.4506 1.40657 17.4668 1.40723C17.4748 1.40755 17.4813 1.40706 17.4854 1.40723C17.487 1.4073 17.4883 1.40816 17.4893 1.4082H17.5215C18.4979 1.4082 19.25 2.17299 19.25 3.04297V22.1162C19.2498 22.986 18.4978 23.75 17.5215 23.75H2.65234C1.67611 23.7499 0.924037 22.986 0.923828 22.1162V22.084Z" fill="white" stroke="white" stroke-width="1.5"/>
</svg>
