<svg width="20" height="17" viewBox="0 0 20 17" fill="none" xmlns="http://www.w3.org/2000/svg">
<path fill-rule="evenodd" clip-rule="evenodd" d="M16.6667 0.5H3.33333C1.5 0.5 0 2.1 0 4.05556V12.9444C0 14.9 1.5 16.5 3.33333 16.5H16.6667C18.5 16.5 20 14.9 20 12.9444V4.05556C20 2.1 18.5 0.5 16.6667 0.5ZM18.4 5.55263C18.2518 5.60463 18 5.55263 18 5.55263H2C2 5.55263 1.74819 5.60463 1.6 5.55263C1.26863 5.43636 1.2 5.07821 1.2 4.71053C1.2 4.34285 1.26863 3.98469 1.6 3.86842C1.74819 3.81642 2 3.86842 2 3.86842H18C18 3.86842 18.2518 3.81642 18.4 3.86842C18.7314 3.98469 18.7845 4.34321 18.8 4.71053C18.8171 5.11416 18.7314 5.43636 18.4 5.55263ZM2.4 11.4474C1.95817 11.4474 1.6 11.8244 1.6 12.2895C1.6 12.7546 1.95817 13.1316 2.4 13.1316C2.84183 13.1316 3.2 12.7546 3.2 12.2895C3.2 11.8244 2.84183 11.4474 2.4 11.4474Z" fill="white"/>
</svg>
