<svg width="20" height="17" viewBox="0 0 20 17" fill="none" xmlns="http://www.w3.org/2000/svg">
<path d="M16.6667 0.5H3.33333C1.5 0.5 0 2.1 0 4.05556V12.9444C0 14.9 1.5 16.5 3.33333 16.5H16.6667C18.5 16.5 20 14.9 20 12.9444V4.05556C20 2.1 18.5 0.5 16.6667 0.5ZM18 5.65556L11.4167 10.3667C11 10.6333 10.5 10.8111 10 10.8111C9.5 10.8111 9 10.6333 8.58333 10.3667L2 5.65556C1.66667 5.38889 1.58333 4.85556 1.83333 4.41111C2.08333 4.05556 2.58333 3.96667 3 4.23333L9.58333 8.94444C9.83333 9.12222 10.25 9.12222 10.5 8.94444L17.0833 4.23333C17.5 3.96667 18 4.05556 18.25 4.5C18.4167 4.85556 18.3333 5.38889 18 5.65556Z" fill="white"/>
</svg>
